<svg xmlns="http://www.w3.org/2000/svg" width="32" height="32" viewBox="0 0 32 32">
    <g fill="none" fill-rule="evenodd">
        <rect width="32" height="32" fill="#0077B5" rx="2"/>
        <path fill="#FFF" d="M10.54 14.18V27H6.253V14.18h4.287zm.283-3.966c0 1.231-.931 2.216-2.426 2.216H8.37c-1.44 0-2.37-.985-2.37-2.216C6 8.957 6.959 8 8.425 8c1.467 0 2.37.957 2.398 2.214zM26 19.65V27h-4.287v-6.858c0-1.723-.62-2.898-2.172-2.898-1.184 0-1.89.792-2.2 1.558-.113.274-.14.656-.14 1.04V27h-4.288s.057-11.617 0-12.82H17.2v1.816c.57-.873 1.588-2.117 3.864-2.117 2.821 0 4.936 1.833 4.936 5.77z"/>
    </g>
</svg>
