<svg xmlns="http://www.w3.org/2000/svg" width="32" height="32" viewBox="0 0 32 32">
    <defs>
        <linearGradient id="a" x1="61.235%" x2="74.706%" y1="43.69%" y2="80.24%">
            <stop offset="0%" stop-color="#EFF7FC"/>
            <stop offset="100%" stop-color="#FFF"/>
        </linearGradient>
    </defs>
    <g fill="none" fill-rule="evenodd">
        <rect width="32" height="32" fill="#29A1D4" rx="2"/>
        <path fill="#C8DAEA" d="M12.576 23.606c-.59 0-.49-.222-.692-.783l-1.732-5.7 13.333-7.91"/>
        <path fill="#A9C9DD" d="M12.576 23.606c.454 0 .655-.208.909-.454l2.424-2.358-3.024-1.823"/>
        <path fill="url(#a)" d="M7.885 10.971l7.327 5.414c.836.461 1.44.222 1.648-.777l2.983-14.055c.305-1.224-.467-1.78-1.267-1.416L1.062 6.89C-.133 7.37-.126 8.037.844 8.334L5.34 9.737l10.405-6.565c.491-.298.942-.138.572.19" transform="translate(5 8)"/>
    </g>
</svg>
