<svg xmlns="http://www.w3.org/2000/svg" width="32" height="32" viewBox="0 0 32 32">
    <g fill="none" fill-rule="evenodd">
        <rect width="32" height="32" fill="#55ACEE" rx="2"/>
        <path fill="#FFF" d="M15.576 12.788l.047.779-.787-.096c-2.864-.365-5.366-1.604-7.491-3.686L6.306 8.753l-.267.762c-.567 1.7-.205 3.496.976 4.703.629.668.487.763-.599.366-.377-.127-.708-.223-.74-.175-.11.111.268 1.557.567 2.129.41.794 1.244 1.573 2.156 2.034l.772.365-.913.016c-.882 0-.913.016-.819.35.315 1.032 1.559 2.129 2.943 2.605l.976.334-.85.509a8.86 8.86 0 0 1-4.217 1.175c-.709.016-1.291.08-1.291.127 0 .16 1.92 1.05 3.037 1.399 3.353 1.032 7.335.588 10.325-1.176 2.124-1.255 4.25-3.75 5.24-6.165.536-1.287 1.07-3.639 1.07-4.767 0-.73.048-.826.93-1.7.519-.508 1.007-1.064 1.101-1.223.157-.302.142-.302-.66-.032-1.339.477-1.528.413-.867-.302.488-.508 1.07-1.43 1.07-1.7 0-.048-.235.032-.503.175-.283.159-.913.397-1.385.54l-.85.27-.771-.524c-.425-.286-1.023-.604-1.338-.7-.802-.222-2.03-.19-2.754.064-1.967.715-3.21 2.558-3.069 4.576z"/>
    </g>
</svg>
