<svg xmlns="http://www.w3.org/2000/svg" width="24" height="24" viewBox="0 0 24 24">
    <g fill="none" fill-rule="evenodd">
        <path fill="#42C8F4" d="M5 3h11.994A2 2 0 0 1 19 4.995v14.01A2 2 0 0 1 16.994 21H5V3z"/>
        <path fill="#D8F1FA" d="M8 7c0-.552.453-1 .997-1h6.006c.55 0 .997.444.997 1 0 .552-.453 1-.997 1H8.997A.996.996 0 0 1 8 7zm2 2.5c0-.276.215-.5.49-.5h3.02a.5.5 0 0 1 .49.5c0 .276-.215.5-.49.5h-3.02a.5.5 0 0 1-.49-.5z"/>
        <path fill="#42C8F4" d="M7 22v2l1-.5 1 .5v-2z"/>
    </g>
</svg>
