<svg xmlns="http://www.w3.org/2000/svg" width="24" height="24" viewBox="0 0 24 24">
    <g fill="none" fill-rule="evenodd">
        <path fill="#FFF" fill-rule="nonzero" d="M4 3h6c1 0 2 1 2 1s1-1 2-1h6c1 0 2 1 2 2v14c0 1-1 2-2 2h-6c-1 0-2 1.5-2 1.5S11 21 10 21H4c-1 0-2-1-2-2V5c0-1 1-2 2-2z"/>
        <path fill="#42C8F4" fill-rule="nonzero" d="M14 20h6c.448 0 1-.552 1-1V5c0-.448-.552-1-1-1h-6c-.203 0-.5.119-.82.332a3.35 3.35 0 0 0-.473.375L12 5.414l-.707-.707a3.35 3.35 0 0 0-.473-.375C10.5 4.12 10.203 4 10 4H4c-.448 0-1 .552-1 1v14c0 .448.552 1 1 1h6c.737 0 1.385.37 2 .962.615-.592 1.263-.962 2-.962zM4 3h6c1 0 2 1 2 1s1-1 2-1h6c1 0 2 1 2 2v14c0 1-1 2-2 2h-6c-1 0-2 1.5-2 1.5S11 21 10 21H4c-1 0-2-1-2-2V5c0-1 1-2 2-2z"/>
        <path fill="#D8F1FA" d="M11 5.417C10.695 5.181 10.347 5 10 5H5c-.5 0-1 .5-1 1v12c0 .5.5 1 1 1h5c.347 0 .695.12 1 .278V5.418zm2 0c.305-.236.653-.417 1-.417h5c.5 0 1 .5 1 1v12c0 .5-.5 1-1 1h-5c-.347 0-.695.12-1 .278V5.418z"/>
    </g>
</svg>
