<?xml version="1.0" encoding="UTF-8"?>
<svg width="32px" height="32px" viewBox="0 0 32 32" version="1.1" xmlns="http://www.w3.org/2000/svg" xmlns:xlink="http://www.w3.org/1999/xlink">
    <!-- Generator: Sketch 43.2 (39069) - http://www.bohemiancoding.com/sketch -->
    <title>ICON menu</title>
    <desc>Created with Sketch.</desc>
    <defs></defs>
    <g id="Symbols" stroke="none" stroke-width="1" fill="none" fill-rule="evenodd">
        <g id="ICON-menu">
            <g>
                <rect id="Rectangle" x="0" y="0" width="32" height="32"></rect>
                <path d="M2,8.0093689 C2,7.45190985 2.43981314,7 2.99653482,7 L29.0034652,7 C29.5538362,7 30,7.44335318 30,8.0093689 L30,9.9906311 C30,10.5480902 29.5601869,11 29.0034652,11 L2.99653482,11 C2.44616384,11 2,10.5566468 2,9.9906311 L2,8.0093689 Z M2,15.0093689 C2,14.4519098 2.43981314,14 2.99653482,14 L29.0034652,14 C29.5538362,14 30,14.4433532 30,15.0093689 L30,16.9906311 C30,17.5480902 29.5601869,18 29.0034652,18 L2.99653482,18 C2.44616384,18 2,17.5566468 2,16.9906311 L2,15.0093689 Z M2,22.0093689 C2,21.4519098 2.43981314,21 2.99653482,21 L29.0034652,21 C29.5538362,21 30,21.4433532 30,22.0093689 L30,23.9906311 C30,24.5480902 29.5601869,25 29.0034652,25 L2.99653482,25 C2.44616384,25 2,24.5566468 2,23.9906311 L2,22.0093689 Z" id="Combined-Shape" fill="#00ADEE"></path>
            </g>
        </g>
    </g>
</svg>