<svg xmlns="http://www.w3.org/2000/svg" width="40" height="40" viewBox="0 0 40 40">
    <g fill="none" fill-rule="evenodd">
        <path fill="#D8F1FA" fill-rule="nonzero" d="M5 17.995c0-1.102.645-2.618 1.438-3.385L18.562 2.89a2.085 2.085 0 0 1 2.876 0l12.124 11.72c.794.768 1.438 2.292 1.438 3.385v17.01A1.997 1.997 0 0 1 33.008 37H6.992A2 2 0 0 1 5 35.005v-17.01z"/>
        <path fill="#42C8F4" fill-rule="nonzero" d="M7 35.005v-.004.004zM6.992 35h0zM33 35V17.995c0-.554-.426-1.559-.828-1.947L20.048 4.328c-.019-.018-.077-.018-.096 0L7.828 16.048c-.404.39-.828 1.388-.828 1.947V35h26zM5 17.995c0-1.102.645-2.618 1.438-3.385L18.562 2.89a2.085 2.085 0 0 1 2.876 0l12.124 11.72c.794.768 1.438 2.292 1.438 3.385v17.01A1.997 1.997 0 0 1 33.008 37H6.992A2 2 0 0 1 5 35.005v-17.01z"/>
        <path fill="#FFF" fill-rule="nonzero" d="M8 6.993C8 5.893 8.897 5 10.005 5h19.99C31.102 5 32 5.9 32 6.993v25.014c0 1.1-.897 1.993-2.005 1.993h-19.99C8.898 34 8 33.1 8 32.007V6.993z"/>
        <path fill="#00ADEE" fill-rule="nonzero" d="M30 32.007v-.004.004zm-20 0c0-.01 19.995-.007 19.995-.007C30 32 30 6.993 30 6.993 30 7.003 10.005 7 10.005 7 10 7 10 32.007 10 32.007zM8 6.993C8 5.893 8.897 5 10.005 5h19.99C31.102 5 32 5.9 32 6.993v25.014c0 1.1-.897 1.993-2.005 1.993h-19.99C8.898 34 8 33.1 8 32.007V6.993z"/>
        <path fill="#94E0FD" d="M13 14c0-.552.45-1 1.007-1h11.986c.556 0 1.007.444 1.007 1 0 .552-.45 1-1.007 1H14.007A1.001 1.001 0 0 1 13 14zm0 3c0-.552.45-1 1.007-1h11.986c.556 0 1.007.444 1.007 1 0 .552-.45 1-1.007 1H14.007A1.001 1.001 0 0 1 13 17z"/>
        <path fill="#D8F1FA" d="M5 17.995c0-1.102.703-1.432 1.563-.745l11.874 9.5c.863.69 2.266.687 3.126 0l11.874-9.5c.863-.69 1.563-.348 1.563.745v17.01A1.997 1.997 0 0 1 33.008 37H6.992A2 2 0 0 1 5 35.005v-17.01z"/>
        <path fill="#42C8F4" fill-rule="nonzero" d="M33 35V20.161l-10.188 8.15c-1.59 1.273-4.031 1.275-5.624 0L7 20.161V35h26zM5 17.995c0-1.102.703-1.432 1.563-.745l11.874 9.5c.863.69 2.266.687 3.126 0l11.874-9.5c.863-.69 1.563-.348 1.563.745v17.01A1.997 1.997 0 0 1 33.008 37H6.992A2 2 0 0 1 5 35.005v-17.01z"/>
        <path fill="#D8F1FA" fill-rule="nonzero" d="M17.608 24.784c1.321-.985 3.454-.958 4.753.054C22.36 24.838 33.5 33.5 34 34s.51 1.09.51 1.09c.271 1.055-.408 1.91-1.502 1.91H6.992c-1.1 0-1.755-.87-1.424-1.923 0 0-.068-.077.432-1.077s11.608-9.216 11.608-9.216z"/>
        <path fill="#42C8F4" fill-rule="nonzero" d="M32.08 35a674.295 674.295 0 0 0-5.066-3.995l-.058-.045a2436.584 2436.584 0 0 0-5.323-4.154l-.501-.39c-.591-.46-1.732-.474-2.328-.029a262.707 262.707 0 0 0-1.813 1.352 412.166 412.166 0 0 0-3.977 3.014l-.353.272a143.144 143.144 0 0 0-3.574 2.83c-.493.407-.883.742-1.155.993A8.418 8.418 0 0 0 7.77 35h24.31zM17.608 24.784c1.321-.985 3.454-.958 4.753.054C22.36 24.838 33.5 33.5 34 34s.51 1.09.51 1.09c.271 1.055-.408 1.91-1.502 1.91H6.992c-1.1 0-1.755-.87-1.424-1.923 0 0-.068-.077.432-1.077s11.608-9.216 11.608-9.216z"/>
    </g>
</svg>
