<svg xmlns="http://www.w3.org/2000/svg" width="40" height="40" viewBox="0 0 40 40">
    <g fill="none" fill-rule="evenodd">
        <path fill="#D8F1FA" d="M3 5.493A2.49 2.49 0 0 1 5.5 3C6.88 3 8 4.118 8 5.493v15.014A2.49 2.49 0 0 1 5.5 23C4.12 23 3 21.882 3 20.507V5.493z"/>
        <path fill="#42C8F4" fill-rule="nonzero" d="M5 5.493v15.014c0 .27.224.493.5.493a.49.49 0 0 0 .5-.493V5.493A.498.498 0 0 0 5.5 5a.49.49 0 0 0-.5.493zm-2 0A2.49 2.49 0 0 1 5.5 3C6.88 3 8 4.118 8 5.493v15.014A2.49 2.49 0 0 1 5.5 23C4.12 23 3 21.882 3 20.507V5.493zm2 17.002c0-.273.232-.495.5-.495.276 0 .5.216.5.495v2.01a.503.503 0 0 1-.5.495.494.494 0 0 1-.5-.495v-2.01z"/>
        <path fill="#00ADEE" fill-rule="nonzero" d="M6 11V5.498A.505.505 0 0 0 5.5 5c-.282 0-.5.219-.5.498V11h1zM3 5.498C3 4.118 4.11 3 5.5 3 6.88 3 8 4.128 8 5.498V13H3V5.498zM33.5 11a2.5 2.5 0 1 0 0-5 2.5 2.5 0 0 0 0 5zm0 2a4.5 4.5 0 1 1 0-9 4.5 4.5 0 0 1 0 9z"/>
        <path fill="#D8F1FA" fill-rule="nonzero" d="M33.5 11a2.5 2.5 0 1 0 0-5 2.5 2.5 0 0 0 0 5z"/>
        <path fill="#FFF" fill-rule="nonzero" d="M11 9c0-2.761 2.247-5 4.99-5H34v27c0 2.761-2.247 5-4.99 5H11V9z"/>
        <path fill="#00ADEE" fill-rule="nonzero" d="M29.01 34A3.004 3.004 0 0 0 32 31V6H15.99A3.004 3.004 0 0 0 13 9v25h16.01zM11 9c0-2.761 2.247-5 4.99-5H34v27c0 2.761-2.247 5-4.99 5H11V9z"/>
        <path fill="#94E0FD" d="M16 15a1 1 0 0 1 .999-1H28a1 1 0 1 1 0 2H17A.997.997 0 0 1 16 15zm0 3a1 1 0 0 1 .999-1H28a1 1 0 1 1 0 2H17A.997.997 0 0 1 16 18z"/>
        <path fill="#00ADEE" fill-rule="nonzero" d="M11.01 30C9.902 30 9 30.899 9 32c0 1.1.9 2 2.01 2h13.384A5.22 5.22 0 0 1 24 32c0-.713.14-1.38.394-2H11.01zM7 32c0-2.21 1.8-4 4.01-4H29s-3 1.5-3 4 3 4 3 4H11.01A4.008 4.008 0 0 1 7 32z"/>
        <path fill="#D8F1FA" fill-rule="nonzero" d="M11.01 30C9.902 30 9 30.899 9 32c0 1.1.9 2 2.01 2h13.384A5.22 5.22 0 0 1 24 32c0-.713.14-1.38.394-2H11.01z"/>
    </g>
</svg>
