<svg xmlns="http://www.w3.org/2000/svg" width="40" height="40" viewBox="0 0 40 40">
    <g fill="none" fill-rule="evenodd">
        <path fill="#D8F1FA" fill-rule="nonzero" d="M7.006 23A4 4 0 0 1 3 19V7a4 4 0 0 1 3.998-4h19.004A4 4 0 0 1 30 7v12c0 2.21-1.787 4-4.006 4H13.005l-6 4.5V23z"/>
        <path fill="#42C8F4" fill-rule="nonzero" d="M12.338 21h13.656A1.998 1.998 0 0 0 28 19V7a2 2 0 0 0-1.998-2H6.998A2 2 0 0 0 5 7v12c0 1.104.894 2 1.994 2h2.012v2.5l3.332-2.5zm-5.332 2A4 4 0 0 1 3 19V7a4 4 0 0 1 3.998-4h19.004A4 4 0 0 1 30 7v12c0 2.21-1.787 4-4.006 4H13.005l-6 4.5V23z"/>
        <path fill="#FFF" fill-rule="nonzero" d="M33.994 38.5l-6-4.5H17A4.005 4.005 0 0 1 13 29.994V19.006A4 4 0 0 1 17.003 15h16.994A4.008 4.008 0 0 1 38 19.006v10.988A3.996 3.996 0 0 1 34.006 34l-.012 4.5z"/>
        <path fill="#00ADEE" fill-rule="nonzero" d="M31.994 34.5V32h2.012A1.996 1.996 0 0 0 36 29.994V19.006C36 17.9 35.1 17 33.997 17H17.003A2 2 0 0 0 15 19.006v10.988C15 31.1 15.898 32 16.999 32h11.663l3.332 2.5zm2 4l-6-4.5H17A4.005 4.005 0 0 1 13 29.994V19.006A4 4 0 0 1 17.003 15h16.994A4.008 4.008 0 0 1 38 19.006v10.988A3.996 3.996 0 0 1 34.006 34l-.012 4.5z"/>
        <path fill="#94E0FD" d="M20.5 26a1.5 1.5 0 1 1 0-3 1.5 1.5 0 0 1 0 3zm5 0a1.5 1.5 0 1 1 0-3 1.5 1.5 0 0 1 0 3zm5 0a1.5 1.5 0 1 1 0-3 1.5 1.5 0 0 1 0 3z"/>
        <path fill="#FFF" d="M11.5 14a1.5 1.5 0 1 1 0-3 1.5 1.5 0 0 1 0 3zm5 0a1.5 1.5 0 1 1 0-3 1.5 1.5 0 0 1 0 3zm5 0a1.5 1.5 0 1 1 0-3 1.5 1.5 0 0 1 0 3z"/>
    </g>
</svg>
