<svg xmlns="http://www.w3.org/2000/svg" width="40" height="40" viewBox="0 0 40 40">
    <g fill="none" fill-rule="evenodd" transform="translate(3 1)">
        <path fill="#42C8F4" fill-rule="nonzero" d="M5.093 34H26c2.5 0-.935-1.22-.467-3.36C26 28.5 28 29.5 28.5 28c.5-1.5-1.665-1.5-1-3.5s3.5-.5 3.5-2-2.5-1-2-3.5c.205-1.027 1.5-1.5 2.5-1.5S33.356 16 31 16H20c-1.597 0-2.55-1.78-1.664-3.11.55-.825 1.164-5.427 1.164-8.39 0-1.843-.5-2.452-2.359-2.452-.161.503-.191 1.261-.157 3.666.011.783.016 1.247.016 1.786 0 5.199-4.54 8.5-8 8.5H5.482l-.389 18zM27.5 31s1.5 1 1.5 2.5-1.5 2.5-3 2.5H3l1-22h5c1 0 6-1.5 6-6.5S14.5 0 17.5 0s4 2 4 4.5c0 1.812-.263 5.201-.788 7.5L20 14h11c1.5 0 3 1 3 3s-3 2.5-3 2.5 2.5.5 2 3-3.5 3-3.5 3 1 .5 1 2.5-3 3-3 3z"/>
        <path fill="#D8F1FA" d="M5.093 34H26c2.5 0-.935-1.22-.467-3.36C26 28.5 28 29.5 28.5 28c.5-1.5-1.665-1.5-1-3.5s3.5-.5 3.5-2-2.5-1-2-3.5c.205-1.027 1.5-1.5 2.5-1.5S33.356 16 31 16H20c-1.597 0-2.55-1.78-1.664-3.11.55-.825 1.164-5.427 1.164-8.39 0-1.843-.5-2.452-2.359-2.452-.161.503-.191 1.261-.157 3.666.011.783.016 1.247.016 1.786 0 5.199-4.54 8.5-8 8.5H5.482l-.389 18z"/>
        <path fill="#00ADEE" fill-rule="nonzero" d="M.5 13H9L8 38l-7.5-.5z"/>
        <path fill="#FFF" d="M2.5 15v20.629l3.584.239L6.918 15z"/>
        <circle cx="4.5" cy="33.5" r="1.5" fill="#00ADEE"/>
    </g>
</svg>
