<svg xmlns="http://www.w3.org/2000/svg" width="40" height="40" viewBox="0 0 40 40">
    <g fill="none" fill-rule="evenodd" transform="translate(6 2)">
        <path fill="#42C8F4" fill-rule="nonzero" d="M24 19h1c1.5 0 5 0 5 2s-1.5 9-4 9c-.444 0-.824-.04-1.15-.104-.327-.064-1.35-.396-1.85-.896 0 .213-.562 1.476-.89 1.82C20.5 32.5 17.473 35 16 35H7.5C5 35 0 31 0 29v-7.997A4 4 0 0 1 4.006 17h14.988a4 4 0 0 1 3.015 1.362C23 19 23.5 19 24 19zm1.5 9c1 0 1.5-1.5 2-3 .149-.447 1-3 .5-3.5s-2.298-.5-3-.5c-1 0-1 2.5-1 3.5s.5 3.5 1.5 3.5z"/>
        <path fill="#D8F1FA" d="M21 29c-.275.55-1.374 1.603-2.041 2.168C17.69 32.239 16.326 33 16 33H7.5C6.019 33 2 29.785 2 29v-7.997A2 2 0 0 1 4.006 19h14.988C20.5 19 22 20 22 21.003 22 22.006 22 27 21 29z"/>
        <path fill="#00ADEE" fill-rule="nonzero" d="M7.4 2.3a5.57 5.57 0 0 1 .82.825C8.714 3.745 9 4.386 9 5c0 .373-.38.785-1.6 1.7C5.62 8.035 5 8.706 5 10c0 1.136.465 2.182 1.22 3.125.434.543.868.941 1.18 1.175a1 1 0 0 0 1.2-1.6 5.57 5.57 0 0 1-.82-.825C7.286 11.255 7 10.614 7 10c0-.373.38-.785 1.6-1.7C10.38 6.965 11 6.294 11 5c0-1.136-.465-2.182-1.22-3.125A6.867 6.867 0 0 0 8.6.7a1 1 0 1 0-1.2 1.6zM13.4 2.3a5.57 5.57 0 0 1 .82.825c.495.62.78 1.261.78 1.875 0 .373-.38.785-1.6 1.7C11.62 8.035 11 8.706 11 10c0 1.136.465 2.182 1.22 3.125.434.543.868.941 1.18 1.175a1 1 0 0 0 1.2-1.6 5.57 5.57 0 0 1-.82-.825c-.495-.62-.78-1.261-.78-1.875 0-.373.38-.785 1.6-1.7C16.38 6.965 17 6.294 17 5c0-1.136-.465-2.182-1.22-3.125A6.867 6.867 0 0 0 14.6.7a1 1 0 1 0-1.2 1.6z"/>
        <circle cx="8" cy="26" r="1" fill="#FFF"/>
        <path fill="#FFF" fill-rule="nonzero" d="M7.5 21A3.5 3.5 0 0 0 4 24.5a1 1 0 0 0 2 0A1.5 1.5 0 0 1 7.5 23a1 1 0 0 0 0-2zM15 23a1.5 1.5 0 0 1 1.5 1.5 1 1 0 0 0 2 0A3.5 3.5 0 0 0 15 21a1 1 0 0 0 0 2z"/>
        <circle cx="14" cy="26" r="1" fill="#FFF"/>
    </g>
</svg>
