<svg xmlns="http://www.w3.org/2000/svg" width="24" height="24" viewBox="0 0 24 24">
    <g fill="none" fill-rule="evenodd">
        <path fill="#00ADEE" d="M3.368 10.745a15.49 15.49 0 0 0-.598-.491l-.066-.052a51.911 51.911 0 0 0-.878-.674.338.338 0 0 1 .016-.552c.141-.094.38-.23.684-.366.515-.229 1.034-.367 1.533-.367.161 0 .338.059.531.252l-.059-.148-.017-.045c-.3-.761-.455-1.211-.455-1.412 0-.335.25-.454.592-.475.193-.012.444.009.732.057.552.092 1.17.272 1.533.454.536.268 1 .674 1.275 1.128C8.584 8.016 9.012 8 9.5 8H14c2.5 0 4.704.85 6.554 3.07 1.243 1.493 1.52 2.812 1.445 4.81-.012.313.001.12.001.12 0 .72-.517 4.427-.691 5-.187.615-.814 2.464-.828 2.5-.05.13-.187.5-.481.5h-1c-.5 0-.468-.342-.5-.5l-.684-2.395L17.5 23H16l-.5-3H10l-1.5 3.5c-.043.143-.35.5-.5.5H7c-.5 0-.5-.313-.5-.5l-.363-1.922-.387 1.547H4.397l-.311-2.49c-1.09-.136-2.153-.51-2.634-.991a.338.338 0 0 1 0-.478c.124-.125.281-.176.649-.666.087-.116.359-.413.425-.5H1c-.525 0-1-.475-1-1v-1.992C0 14.483.475 14 1 14h1.03c.122-.884.579-2.188 1.338-3.255z"/>
        <path fill="#D7F1FA" d="M9 10.5a.5.5 0 0 1 .491-.5h5.018a.5.5 0 0 1 0 1H9.491A.5.5 0 0 1 9 10.5zM4 15c.5 0 1-.5 1-1s-.5-1-1-1-1 .5-1 1 .5 1 1 1z"/>
        <path fill="#00ADEE" d="M12 7c1.5 0 3-1.5 3-3s-1.5-3-3-3-3 1.5-3 3 1.5 3 3 3z"/>
        <path fill="#00ADEE" fill-rule="nonzero" d="M21.823 9.945c-.066-.33-.226-.49-.514-.49-.649 0-.878.537-.525.713.282.141.68.132 1.064.002a1.415 1.415 0 0 0-.025-.225zm.672.68l-.003.019a2.31 2.31 0 0 1-.204.654c-.361.722-.857.864-1.994.864a.338.338 0 0 1 0-.677c.893 0 1.186-.083 1.389-.49.015-.03.03-.061.042-.094.086-.215.132-.484.123-.73.227-.077.45-.196.64-.351.249-.204.443-.47.522-.784a.338.338 0 1 1 .656.164c-.16.638-.62 1.13-1.171 1.425a2.733 2.733 0 0 1-.77.276c-.444.086-.889.05-1.244-.128-1.08-.54-.456-1.994.828-1.994.642 0 1.053.411 1.177 1.033.051.26.051.542.009.813z"/>
    </g>
</svg>
