<?xml version="1.0" encoding="UTF-8"?>
<svg width="184px" height="48px" viewBox="0 0 184 48" version="1.1" xmlns="http://www.w3.org/2000/svg" xmlns:xlink="http://www.w3.org/1999/xlink">
    <!-- Generator: Sketch 43.2 (39069) - http://www.bohemiancoding.com/sketch -->
    <title>New Logo</title>
    <desc>Created with Sketch.</desc>
    <defs></defs>
    <g id="Symbols" stroke="none" stroke-width="1" fill="none" fill-rule="evenodd">
        <g id="New-Logo">
            <g>
                <path d="M61,2.875 C60.5,2.5 57.25,1 52.25,1 C47.25,1 35.625,3.75 35.625,17.5 C35.625,31.25 46.25,34.75 52.25,34.75 C58.25,34.75 61.875,32.625 63.125,31.625 C63.125,30.375 63.125,18.5 63.125,18.5 L57,18.5 C57,18.5 57,25 57,28.125 C56,28.5 54.125,28.875 52.25,28.875 C46.625,28.875 41.875,24.375 41.875,17.5 C41.875,10.625 47.625,6.875 52.25,6.875 C56.875,6.875 60.375,8.75 61,9.125 C61,7.875 61,3.75 61,2.875 Z" id="Path" fill="#00ADEE"></path>
                <polygon id="Path-2" fill="#00ADEE" points="67 1.5 72.75 0 72.75 34 67 34"></polygon>
                <path d="M88.25,34.75 C81.25,34.75 76.25,30 76.25,23.125 C76.25,16.25 81.125,11.5 88.25,11.5 C95.375,11.5 100.25,16.25 100.25,23.125 C100.25,30 95.25,34.75 88.25,34.75 Z M88.25,30.125 C92,30.125 94.75,27.375 94.75,23.125 C94.75,18.875 92,16.125 88.25,16.125 C84.5,16.125 81.75,18.875 81.75,23.125 C81.75,27.375 84.5,30.125 88.25,30.125 Z" id="Combined-Shape" fill="#00ADEE"></path>
                <path d="M103.75,1.875 L109.25,0 C109.25,0 109.25,12.25 109.25,13 C109.875,12.5 112,11.5 114.25,11.5 C121,11.5 125.75,15.75 126,23.25 C126.25,30.75 120,34.75 114.25,34.75 C108.5,34.75 104.125,32.25 103.75,31.625 L103.75,1.875 Z M109.25,18 C109.25,19 109.25,28.5 109.25,29.125 C109.75,29.375 112.375,29.875 114.25,29.875 C116.875,29.875 120.25,27.375 120.25,23.25 C120.25,19.125 117.875,16.5 114.25,16.5 C112.625,16.5 109.875,17.375 109.25,18 Z" id="Combined-Shape" fill="#00ADEE"></path>
                <path d="M161.25,24 C159.875,24 145.625,24 145,24 C145,28.75 148.625,30.125 152,30.125 C155.375,30.125 159,29 159.5,28.75 C159.5,29.5 159.5,33 159.5,33.5 C159,33.75 156.5,34.75 151.5,34.75 C142.625,34.75 139.25,29.125 139.25,23.75 C139.25,18.375 141.5,11.5 150.75,11.5 C160,11.5 161.25,20.5 161.25,24 Z M145,20.25 C146.25,20.25 154.625,20.25 155.375,20.25 C155.25,17.375 153.25,15.5 150.25,15.5 C147.25,15.5 145,17.9570554 145,20.25 Z" id="Combined-Shape" fill="#00ADEE"></path>
                <path d="M129.5,12.25 L135.25,12.25 L135.25,34 L129.5,34 L129.5,12.25 Z M132.375,8.5 C130.580075,8.5 129.125,7.04492544 129.125,5.25 C129.125,3.45507456 130.580075,2 132.375,2 C134.169925,2 135.625,3.45507456 135.625,5.25 C135.625,7.04492544 134.169925,8.5 132.375,8.5 Z" id="Combined-Shape" fill="#00ADEE"></path>
                <polygon id="Path-8" fill="#00ADEE" points="164.75 12.25 183.875 12.25 183.875 13.375 172.75 29.5 183.5 29.5 183.5 34 164.25 34 164.25 32.875 175.5 16.75 164.75 16.75"></polygon>
                <path d="M7.29005596,41.4779822 C9.34531075,41.5487671 11.5047015,41.0252035 13.375,39.75 C16.125,37.875 17.5,34.8410645 17.5,33.5 C16.625,33.875 15.125,35 11.75,35 C5.25,35 1.77635684e-15,29.7081418 0,23.25 C-1.85009917e-15,16.7918582 5.25,11.4850487 11.75,11.4850487 C14.1200994,11.4850487 16.2096225,12.2388454 17.7611524,13.1389573 C17.7611524,12 17.75,10 17.75,9.5 C17.75,9 18,8.75521558 18.5,8.75521558 L24.5927873,8.75521558 C25.3219701,7.9822784 26.3547812,7.5 27.5,7.5 C29.709139,7.5 31.5,9.29459715 31.5,11.5083449 C31.5,13.7220927 29.709139,15.5166898 27.5,15.5166898 C26.3431652,15.5166898 25.30103,15.0245783 24.5706928,14.237865 C24.1918971,14.2444302 23.8526575,14.25 23.75,14.25 C23.5,14.25 23.25,14.5 23.25,14.75 L23.25,29.5 C23.25,34.125 22.25,38.75 19,42.25 C15.75,45.75 10.75,47.125 7.75,47 C7.2672171,46.979884 6.8365239,46.9550766 6.45100588,46.9262798 C5.77395904,47.4530561 4.92352981,47.7666898 4,47.7666898 C1.790861,47.7666898 0,45.9720927 0,43.7583449 C0,41.5445972 1.790861,39.75 4,39.75 C5.36369358,39.75 6.5680003,40.43384 7.29005596,41.4779822 Z M11.75,29.5 C14.875,29.5 18,26.8986935 18,23.25 C18,19.6013065 15,17 11.75,17 C8.5,17 5.5,19.5418582 5.5,23.25 C5.5,26.9581418 8.625,29.5 11.75,29.5 Z M27.5,13 C28.3284271,13 29,12.3284271 29,11.5 C29,10.6715729 28.3284271,10 27.5,10 C26.6715729,10 26,10.6715729 26,11.5 C26,12.3284271 26.6715729,13 27.5,13 Z M4,45.25 C4.82842712,45.25 5.5,44.5784271 5.5,43.75 C5.5,42.9215729 4.82842712,42.25 4,42.25 C3.17157288,42.25 2.5,42.9215729 2.5,43.75 C2.5,44.5784271 3.17157288,45.25 4,45.25 Z" id="Combined-Shape" fill="#22D677"></path>
            </g>
        </g>
    </g>
</svg>