<svg xmlns="http://www.w3.org/2000/svg" width="32" height="32" viewBox="0 0 32 32">
    <g fill="none" fill-rule="evenodd">
        <path d="M0 0h32v32H0z"/>
        <path fill="#00ADEE" d="M2 8.01C2 7.451 2.44 7 2.997 7h26.006c.55 0 .997.443.997 1.01v1.98a.999.999 0 0 1-.997 1.01H2.997A.998.998 0 0 1 2 9.99V8.01zm0 7c0-.558.44-1.01.997-1.01h26.006c.55 0 .997.443.997 1.01v1.98a.999.999 0 0 1-.997 1.01H2.997A.998.998 0 0 1 2 16.99v-1.98zm0 7c0-.558.44-1.01.997-1.01h26.006c.55 0 .997.443.997 1.01v1.98a.999.999 0 0 1-.997 1.01H2.997A.998.998 0 0 1 2 23.99v-1.98z"/>
    </g>
</svg>
