<svg xmlns="http://www.w3.org/2000/svg" xmlns:xlink="http://www.w3.org/1999/xlink" width="2030" height="147" viewBox="0 0 2030 147">
    <defs>
        <path id="a" d="M8 14.997c0-.55.45-.997 1.007-.997h11.986c.556 0 1.007.453 1.007.997v6.006c0 .55-.45.997-1.007.997H9.007A1.006 1.006 0 0 1 8 21.003v-6.006zm0 11.002c0-.552.45-.999 1.007-.999h11.986c.556 0 1.007.447 1.007.999V37c0 .552-.45.999-1.007.999H9.007A1.003 1.003 0 0 1 8 37.001V26zm0 16c0-.552.446-.999.993-.999h25.014c.548 0 .993.447.993.999V53a.997.997 0 0 1-.993.999H8.993A.996.996 0 0 1 8 53.001V42zm0 16c0-.552.446-.999.993-.999h25.014c.548 0 .993.447.993.999V69a.997.997 0 0 1-.993.999H8.993A.996.996 0 0 1 8 69.001V58zm0 16c0-.552.455-.999 1-.999h32a1 1 0 0 1 1 .999V85c0 .552-.455.999-1 .999H9a1 1 0 0 1-1-.999V74zm0 16.008A.999.999 0 0 1 9.002 89h19.996c.553 0 1.002.449 1.002 1.007v12.986A.999.999 0 0 1 28.998 104H9.002A1.004 1.004 0 0 1 8 102.993V90.007zm24 0A1 1 0 0 1 32.993 89h16.014A1 1 0 0 1 50 90.007v12.986a1 1 0 0 1-.993 1.007H32.993a1 1 0 0 1-.993-1.007V90.007zm20 0A.999.999 0 0 1 53.003 89h20.994c.554 0 1.003.449 1.003 1.007v12.986A.999.999 0 0 1 73.997 104H53.003A1.004 1.004 0 0 1 52 102.993V90.007zm25 0c0-.556.445-1.007 1.003-1.007h92.994c.554 0 1.003.449 1.003 1.007v12.986c0 .556-.445 1.007-1.003 1.007H78.003A1.004 1.004 0 0 1 77 102.993V90.007zm97 0A.999.999 0 0 1 175.002 89h19.996c.553 0 1.002.449 1.002 1.007v12.986a.999.999 0 0 1-1.002 1.007h-19.996a1.004 1.004 0 0 1-1.002-1.007V90.007zm24 0c0-.556.45-1.007.995-1.007h17.01a1 1 0 0 1 .995 1.007v12.986c0 .556-.45 1.007-.995 1.007h-17.01a1 1 0 0 1-.995-1.007V90.007zm21 0c0-.556.447-1.007 1-1.007h22c.552 0 1 .449 1 1.007v12.986c0 .556-.447 1.007-1 1.007h-22c-.552 0-1-.449-1-1.007V90.007zM24 26c0-.552.45-.999 1.007-.999h11.986c.556 0 1.007.447 1.007.999V37c0 .552-.45.999-1.007.999H25.007A1.003 1.003 0 0 1 24 37.001V26zm16 0c0-.552.45-.999 1.007-.999h11.986c.556 0 1.007.447 1.007.999V37c0 .552-.45.999-1.007.999H41.007A1.003 1.003 0 0 1 40 37.001V26zm16 0c0-.552.45-.999 1.007-.999h11.986c.556 0 1.007.447 1.007.999V37c0 .552-.45.999-1.007.999H57.007A1.003 1.003 0 0 1 56 37.001V26zm16 0c0-.552.45-.999 1.007-.999h11.986c.556 0 1.007.447 1.007.999V37c0 .552-.45.999-1.007.999H73.007A1.003 1.003 0 0 1 72 37.001V26zm16 0c0-.552.45-.999 1.007-.999h11.986c.556 0 1.007.447 1.007.999V37c0 .552-.45.999-1.007.999H89.007A1.003 1.003 0 0 1 88 37.001V26zm16 0c0-.552.45-.999 1.007-.999h11.986c.556 0 1.007.447 1.007.999V37c0 .552-.45.999-1.007.999h-11.986a1.003 1.003 0 0 1-1.007-.999V26zm16 0c0-.552.45-.999 1.007-.999h11.986c.556 0 1.007.447 1.007.999V37c0 .552-.45.999-1.007.999h-11.986a1.003 1.003 0 0 1-1.007-.999V26zm16 0c0-.552.45-.999 1.007-.999h11.986c.556 0 1.007.447 1.007.999V37c0 .552-.45.999-1.007.999h-11.986a1.003 1.003 0 0 1-1.007-.999V26zm-99 16c0-.552.45-.999 1.007-.999h11.986c.556 0 1.007.447 1.007.999V53c0 .552-.45.999-1.007.999H38.007A1.003 1.003 0 0 1 37 53.001V42zm16 0c0-.552.45-.999 1.007-.999h11.986c.556 0 1.007.447 1.007.999V53c0 .552-.45.999-1.007.999H54.007A1.003 1.003 0 0 1 53 53.001V42zm16 0c0-.552.45-.999 1.007-.999h11.986c.556 0 1.007.447 1.007.999V53c0 .552-.45.999-1.007.999H70.007A1.003 1.003 0 0 1 69 53.001V42zm-32 16c0-.552.45-.999 1.007-.999h11.986c.556 0 1.007.447 1.007.999V69c0 .552-.45.999-1.007.999H38.007A1.003 1.003 0 0 1 37 69.001V58zm16 0c0-.552.45-.999 1.007-.999h11.986c.556 0 1.007.447 1.007.999V69c0 .552-.45.999-1.007.999H54.007A1.003 1.003 0 0 1 53 69.001V58zm16 0c0-.552.45-.999 1.007-.999h11.986c.556 0 1.007.447 1.007.999V69c0 .552-.45.999-1.007.999H70.007A1.003 1.003 0 0 1 69 69.001V58zm16-16c0-.552.45-.999 1.007-.999h11.986c.556 0 1.007.447 1.007.999V53c0 .552-.45.999-1.007.999H86.007A1.003 1.003 0 0 1 85 53.001V42zm16 0c0-.552.45-.999 1.007-.999h11.986c.556 0 1.007.447 1.007.999V53c0 .552-.45.999-1.007.999h-11.986a1.003 1.003 0 0 1-1.007-.999V42zm16 0c0-.552.45-.999 1.007-.999h11.986c.556 0 1.007.447 1.007.999V53c0 .552-.45.999-1.007.999h-11.986a1.003 1.003 0 0 1-1.007-.999V42zm16 0c0-.552.45-.999 1.007-.999h11.986c.556 0 1.007.447 1.007.999V53c0 .552-.45.999-1.007.999h-11.986a1.003 1.003 0 0 1-1.007-.999V42zm16 0c0-.552.45-.999 1.007-.999h11.986c.556 0 1.007.447 1.007.999V53c0 .552-.45.999-1.007.999h-11.986a1.003 1.003 0 0 1-1.007-.999V42zm3-16c0-.552.45-.999 1.007-.999h11.986c.556 0 1.007.447 1.007.999V37c0 .552-.45.999-1.007.999h-11.986a1.003 1.003 0 0 1-1.007-.999V26zm16 0c0-.552.45-.999 1.007-.999h11.986c.556 0 1.007.447 1.007.999V37c0 .552-.45.999-1.007.999h-11.986a1.003 1.003 0 0 1-1.007-.999V26zm16 0c0-.552.45-.999 1.007-.999h11.986c.556 0 1.007.447 1.007.999V37c0 .552-.45.999-1.007.999h-11.986a1.003 1.003 0 0 1-1.007-.999V26zm16 0c0-.552.45-.999 1.007-.999h11.986c.556 0 1.007.447 1.007.999V37c0 .552-.45.999-1.007.999h-11.986a1.003 1.003 0 0 1-1.007-.999V26zm50 0c0-.552.45-.999 1.007-.999h11.986c.556 0 1.007.447 1.007.999V37c0 .552-.45.999-1.007.999h-11.986a1.003 1.003 0 0 1-1.007-.999V26zm17 0c0-.552.45-.999 1.007-.999h11.986c.556 0 1.007.447 1.007.999V37c0 .552-.45.999-1.007.999h-11.986a1.003 1.003 0 0 1-1.007-.999V26zm17 0c0-.552.45-.999 1.007-.999h11.986c.556 0 1.007.447 1.007.999V37c0 .552-.45.999-1.007.999h-11.986a1.003 1.003 0 0 1-1.007-.999V26zm-34 16c0-.552.45-.999 1.007-.999h11.986c.556 0 1.007.447 1.007.999V53c0 .552-.45.999-1.007.999h-11.986a1.003 1.003 0 0 1-1.007-.999V42zm17 0c0-.552.45-.999 1.007-.999h11.986c.556 0 1.007.447 1.007.999V53c0 .552-.45.999-1.007.999h-11.986a1.003 1.003 0 0 1-1.007-.999V42zm17 0c0-.552.45-.999 1.007-.999h11.986c.556 0 1.007.447 1.007.999V53c0 .552-.45.999-1.007.999h-11.986a1.003 1.003 0 0 1-1.007-.999V42zm-17 34c0-.552.45-.999 1.007-.999h11.986c.556 0 1.007.447 1.007.999V87c0 .552-.45.999-1.007.999h-11.986a1.003 1.003 0 0 1-1.007-.999V76zm-17 16c0-.552.45-.999 1.007-.999h11.986c.556 0 1.007.447 1.007.999V103c0 .552-.45.999-1.007.999h-11.986a1.003 1.003 0 0 1-1.007-.999V92zm17 0c0-.552.45-.999 1.007-.999h11.986c.556 0 1.007.447 1.007.999V103c0 .552-.45.999-1.007.999h-11.986a1.003 1.003 0 0 1-1.007-.999V92zm17 0c0-.552.45-.999 1.007-.999h11.986c.556 0 1.007.447 1.007.999V103c0 .552-.45.999-1.007.999h-11.986a1.003 1.003 0 0 1-1.007-.999V92zm-119-50c0-.552.45-.999 1.007-.999h11.986c.556 0 1.007.447 1.007.999V53c0 .552-.45.999-1.007.999h-11.986a1.003 1.003 0 0 1-1.007-.999V42zm16 0c0-.552.45-.999 1.007-.999h11.986c.556 0 1.007.447 1.007.999V53c0 .552-.45.999-1.007.999h-11.986a1.003 1.003 0 0 1-1.007-.999V42zm16 0c0-.552.45-.999 1.007-.999h11.986c.556 0 1.007.447 1.007.999V53c0 .552-.45.999-1.007.999h-11.986a1.003 1.003 0 0 1-1.007-.999V42zm-112 16c0-.552.45-.999 1.007-.999h11.986c.556 0 1.007.447 1.007.999V69c0 .552-.45.999-1.007.999H86.007A1.003 1.003 0 0 1 85 69.001V58zm16 0c0-.552.45-.999 1.007-.999h11.986c.556 0 1.007.447 1.007.999V69c0 .552-.45.999-1.007.999h-11.986a1.003 1.003 0 0 1-1.007-.999V58zm16 0c0-.552.45-.999 1.007-.999h11.986c.556 0 1.007.447 1.007.999V69c0 .552-.45.999-1.007.999h-11.986a1.003 1.003 0 0 1-1.007-.999V58zm16 0c0-.552.45-.999 1.007-.999h11.986c.556 0 1.007.447 1.007.999V69c0 .552-.45.999-1.007.999h-11.986a1.003 1.003 0 0 1-1.007-.999V58zm16 0c0-.552.45-.999 1.007-.999h11.986c.556 0 1.007.447 1.007.999V69c0 .552-.45.999-1.007.999h-11.986a1.003 1.003 0 0 1-1.007-.999V58zm16 0c0-.552.45-.999 1.007-.999h11.986c.556 0 1.007.447 1.007.999V69c0 .552-.45.999-1.007.999h-11.986a1.003 1.003 0 0 1-1.007-.999V58zm-121 16c0-.552.45-.999 1.007-.999h11.986c.556 0 1.007.447 1.007.999V85c0 .552-.45.999-1.007.999H45.007A1.003 1.003 0 0 1 44 85.001V74zm16 0c0-.552.45-.999 1.007-.999h11.986c.556 0 1.007.447 1.007.999V85c0 .552-.45.999-1.007.999H61.007A1.003 1.003 0 0 1 60 85.001V74zm16 0c0-.552.45-.999 1.007-.999h11.986c.556 0 1.007.447 1.007.999V85c0 .552-.45.999-1.007.999H77.007A1.003 1.003 0 0 1 76 85.001V74zm16 0c0-.552.45-.999 1.007-.999h11.986c.556 0 1.007.447 1.007.999V85c0 .552-.45.999-1.007.999H93.007A1.003 1.003 0 0 1 92 85.001V74zm16 0c0-.552.45-.999 1.007-.999h11.986c.556 0 1.007.447 1.007.999V85c0 .552-.45.999-1.007.999h-11.986a1.003 1.003 0 0 1-1.007-.999V74zm16 0c0-.552.45-.999 1.007-.999h11.986c.556 0 1.007.447 1.007.999V85c0 .552-.45.999-1.007.999h-11.986a1.003 1.003 0 0 1-1.007-.999V74zm16 0c0-.552.45-.999 1.007-.999h11.986c.556 0 1.007.447 1.007.999V85c0 .552-.45.999-1.007.999h-11.986a1.003 1.003 0 0 1-1.007-.999V74zm16 0c0-.552.45-.999 1.007-.999h11.986c.556 0 1.007.447 1.007.999V85c0 .552-.45.999-1.007.999h-11.986a1.003 1.003 0 0 1-1.007-.999V74zm16 0c0-.552.45-.999 1.007-.999h11.986c.556 0 1.007.447 1.007.999V85c0 .552-.45.999-1.007.999h-11.986a1.003 1.003 0 0 1-1.007-.999V74zm9-16c0-.552.45-.999 1.007-.999h11.986c.556 0 1.007.447 1.007.999V69c0 .552-.45.999-1.007.999h-11.986a1.003 1.003 0 0 1-1.007-.999V58zm16 0c0-.552.45-.999 1.007-.999h11.986c.556 0 1.007.447 1.007.999V69c0 .552-.45.999-1.007.999h-11.986a1.003 1.003 0 0 1-1.007-.999V58zm-9 16c0-.552.45-.999 1.007-.999h11.986c.556 0 1.007.447 1.007.999V85c0 .552-.45.999-1.007.999h-11.986a1.003 1.003 0 0 1-1.007-.999V74zm25-32c0-.552.45-.999 1.007-.999h11.986c.556 0 1.007.447 1.007.999V53c0 .552-.45.999-1.007.999h-11.986a1.003 1.003 0 0 1-1.007-.999V42zm16 0c0-.552.45-.999 1.007-.999h11.986c.556 0 1.007.447 1.007.999V53c0 .552-.45.999-1.007.999h-11.986a1.003 1.003 0 0 1-1.007-.999V42zm-16 16c0-.552.447-.999.998-.999h28.004c.551 0 .998.447.998.999V69a.999.999 0 0 1-.998.999h-28.004a.999.999 0 0 1-.998-.999V58zm-9 16a.994.994 0 0 1 1.003-.999h36.994c.554 0 1.003.447 1.003.999V85a.994.994 0 0 1-1.003.999h-36.994a1.001 1.001 0 0 1-1.003-.999V74zm12-48c0-.552.446-.999.993-.999h25.014c.548 0 .993.447.993.999V37a.997.997 0 0 1-.993.999h-25.014a.996.996 0 0 1-.993-.999V26zM25 14.997c0-.55.45-.997 1.007-.997h11.986c.556 0 1.007.453 1.007.997v6.006c0 .55-.45.997-1.007.997H26.007A1.006 1.006 0 0 1 25 21.003v-6.006zm17 0c0-.55.45-.997 1.007-.997h11.986c.556 0 1.007.453 1.007.997v6.006c0 .55-.45.997-1.007.997H43.007A1.006 1.006 0 0 1 42 21.003v-6.006zm17 0c0-.55.45-.997 1.007-.997h11.986c.556 0 1.007.453 1.007.997v6.006c0 .55-.45.997-1.007.997H60.007A1.006 1.006 0 0 1 59 21.003v-6.006zm17 0c0-.55.45-.997 1.007-.997h11.986c.556 0 1.007.453 1.007.997v6.006c0 .55-.45.997-1.007.997H77.007A1.006 1.006 0 0 1 76 21.003v-6.006zm17 0c0-.55.45-.997 1.007-.997h11.986c.556 0 1.007.453 1.007.997v6.006c0 .55-.45.997-1.007.997H94.007A1.006 1.006 0 0 1 93 21.003v-6.006zm17 0c0-.55.45-.997 1.007-.997h11.986c.556 0 1.007.453 1.007.997v6.006c0 .55-.45.997-1.007.997h-11.986a1.006 1.006 0 0 1-1.007-.997v-6.006zm17 0c0-.55.45-.997 1.007-.997h11.986c.556 0 1.007.453 1.007.997v6.006c0 .55-.45.997-1.007.997h-11.986a1.006 1.006 0 0 1-1.007-.997v-6.006zm17 0c0-.55.45-.997 1.007-.997h11.986c.556 0 1.007.453 1.007.997v6.006c0 .55-.45.997-1.007.997h-11.986a1.006 1.006 0 0 1-1.007-.997v-6.006zm17 0c0-.55.45-.997 1.007-.997h11.986c.556 0 1.007.453 1.007.997v6.006c0 .55-.45.997-1.007.997h-11.986a1.006 1.006 0 0 1-1.007-.997v-6.006zm17 0c0-.55.45-.997 1.007-.997h11.986c.556 0 1.007.453 1.007.997v6.006c0 .55-.45.997-1.007.997h-11.986a1.006 1.006 0 0 1-1.007-.997v-6.006zm17 0c0-.55.45-.997 1.007-.997h11.986c.556 0 1.007.453 1.007.997v6.006c0 .55-.45.997-1.007.997h-11.986a1.006 1.006 0 0 1-1.007-.997v-6.006zm17 0c0-.55.45-.997 1.007-.997h11.986c.556 0 1.007.453 1.007.997v6.006c0 .55-.45.997-1.007.997h-11.986a1.006 1.006 0 0 1-1.007-.997v-6.006zm17 0c0-.55.45-.997 1.007-.997h11.986c.556 0 1.007.453 1.007.997v6.006c0 .55-.45.997-1.007.997h-11.986a1.006 1.006 0 0 1-1.007-.997v-6.006zm21 0c0-.55.45-.997 1.007-.997h11.986c.556 0 1.007.453 1.007.997v6.006c0 .55-.45.997-1.007.997h-11.986a1.006 1.006 0 0 1-1.007-.997v-6.006zm17 0c0-.55.45-.997 1.007-.997h11.986c.556 0 1.007.453 1.007.997v6.006c0 .55-.45.997-1.007.997h-11.986a1.006 1.006 0 0 1-1.007-.997v-6.006zm17 0c0-.55.45-.997 1.007-.997h11.986c.556 0 1.007.453 1.007.997v6.006c0 .55-.45.997-1.007.997h-11.986a1.006 1.006 0 0 1-1.007-.997v-6.006zm21 11.002c0-.552.45-.999 1.007-.999h11.986c.556 0 1.007.447 1.007.999V37c0 .552-.45.999-1.007.999h-11.986a1.003 1.003 0 0 1-1.007-.999V26zm17 0c0-.552.45-.999 1.007-.999h11.986c.556 0 1.007.447 1.007.999V37c0 .552-.45.999-1.007.999h-11.986a1.003 1.003 0 0 1-1.007-.999V26zm17 0c0-.552.45-.999 1.007-.999h11.986c.556 0 1.007.447 1.007.999V37c0 .552-.45.999-1.007.999h-11.986a1.003 1.003 0 0 1-1.007-.999V26zm-34 16c0-.552.45-.999 1.007-.999h11.986c.556 0 1.007.447 1.007.999V53c0 .552-.45.999-1.007.999h-11.986a1.003 1.003 0 0 1-1.007-.999V42zm17 0c0-.552.45-.999 1.007-.999h11.986c.556 0 1.007.447 1.007.999V53c0 .552-.45.999-1.007.999h-11.986a1.003 1.003 0 0 1-1.007-.999V42zm17 0c0-.552.45-.999 1.007-.999h11.986c.556 0 1.007.447 1.007.999V53c0 .552-.45.999-1.007.999h-11.986a1.003 1.003 0 0 1-1.007-.999V42zm-34-27.002c0-.55.45-.997 1.007-.997h11.986c.556 0 1.007.453 1.007.997v6.006c0 .55-.45.997-1.007.997h-11.986a1.006 1.006 0 0 1-1.007-.997v-6.006zm17 0c0-.55.45-.997 1.007-.997h11.986c.556 0 1.007.453 1.007.997v6.006c0 .55-.45.997-1.007.997h-11.986a1.006 1.006 0 0 1-1.007-.997v-6.006zm17 0c0-.55.45-.997 1.007-.997h11.986c.556 0 1.007.453 1.007.997v6.006c0 .55-.45.997-1.007.997h-11.986a1.006 1.006 0 0 1-1.007-.997v-6.006zm17 11.002c0-.552.45-.999 1.007-.999h11.986c.556 0 1.007.447 1.007.999V37c0 .552-.45.999-1.007.999h-11.986a1.003 1.003 0 0 1-1.007-.999V26zm0 16c0-.552.45-.999 1.007-.999h11.986c.556 0 1.007.447 1.007.999V53c0 .552-.45.999-1.007.999h-11.986a1.003 1.003 0 0 1-1.007-.999V42zm-51 16c0-.552.45-.999 1.007-.999h11.986c.556 0 1.007.447 1.007.999V69c0 .552-.45.999-1.007.999h-11.986a1.003 1.003 0 0 1-1.007-.999V58zm17 0c0-.552.45-.999 1.007-.999h11.986c.556 0 1.007.447 1.007.999V69c0 .552-.45.999-1.007.999h-11.986a1.003 1.003 0 0 1-1.007-.999V58zm17 0c0-.552.45-.999 1.007-.999h11.986c.556 0 1.007.447 1.007.999V69c0 .552-.45.999-1.007.999h-11.986a1.003 1.003 0 0 1-1.007-.999V58zm-34 16c0-.552.45-.999 1.007-.999h11.986c.556 0 1.007.447 1.007.999V85c0 .552-.45.999-1.007.999h-11.986a1.003 1.003 0 0 1-1.007-.999V74zm17 0c0-.552.45-.999 1.007-.999h11.986c.556 0 1.007.447 1.007.999V85c0 .552-.45.999-1.007.999h-11.986a1.003 1.003 0 0 1-1.007-.999V74zm17 0c0-.552.45-.999 1.007-.999h11.986c.556 0 1.007.447 1.007.999V85c0 .552-.45.999-1.007.999h-11.986a1.003 1.003 0 0 1-1.007-.999V74zm0 16.008c0-.556.45-1.007 1.007-1.007h11.986c.556 0 1.007.449 1.007 1.007v12.986c0 .556-.45 1.007-1.007 1.007h-11.986a1.006 1.006 0 0 1-1.007-1.007V90.007zm-34 0a.997.997 0 0 1 .996-1.007h29.008a1 1 0 0 1 .996 1.007v12.986a.997.997 0 0 1-.996 1.007h-29.008a1 1 0 0 1-.996-1.007V90.007zM356 58c0-.552.45-.999 1.007-.999h11.986c.556 0 1.007.447 1.007.999V69c0 .552-.45.999-1.007.999h-11.986a1.003 1.003 0 0 1-1.007-.999V58zm0 15.997c0-.55.45-.996 1.007-.996h11.986a.997.997 0 0 1 1.007.996v29.008c0 .55-.45.996-1.007.996h-11.986a.997.997 0 0 1-1.007-.996V73.996zm0-58.999c0-.55.45-.997 1.007-.997h11.986c.556 0 1.007.453 1.007.997v6.006c0 .55-.45.997-1.007.997h-11.986a1.006 1.006 0 0 1-1.007-.997v-6.006z"/>
    </defs>
    <g fill="none" fill-rule="evenodd">
        <g transform="translate(1712 12)">
            <circle cx="56" cy="56" r="56" fill="#94E0FD"/>
            <path fill="#00506E" d="M25.952 103.264C34.634 108.795 44.942 112 56 112c30.862 0 55.892-24.965 56-55.8C107.367 31.55 87.19 13 63 13c-27.614 0-50 24.177-50 54 0 13.958 4.904 26.68 12.952 36.264z" opacity=".4"/>
            <circle cx="60" cy="54" r="37" fill="#00506E"/>
            <path fill="#94E0FD" d="M98.682 49h15.325a1 1 0 0 1 .993.997v6.006c0 .55-.445.997-.993.997h-15.12C97.353 77.137 80.53 93 60 93c-21.54 0-39-17.46-39-39s17.46-39 39-39c19.845 0 36.228 14.822 38.682 34zM61 88c18.778 0 34-15.222 34-34S79.778 20 61 20 27 35.222 27 54s15.222 34 34 34z"/>
            <path fill="#0186B8" d="M32.8 73A33.841 33.841 0 0 1 27 54c0-18.442 14.683-33.454 32.997-33.985-16.631 7.162-28.275 23.7-28.275 42.957 0 3.442.372 6.798 1.078 10.028z"/>
        </g>
        <g transform="translate(24 8)">
            <path fill="#94E0FD" d="M0 31V12h44L62 0h8l17 9 5 4h21l3 3v15H91z"/>
            <path fill="#00ADEE" d="M0 78V27h43V9h44v14.5c1 .5 3.5 2.5 5 3.5h21.5l2.5 2.5V78H0z"/>
            <path fill="#94E0FD" d="M3 74c-2 0-3 1.5-3 4 1.5 1.5 5 5 8 5h99.5c3 0 6-3 8.5-5 0-2-.5-4-3.5-4H3z"/>
            <path fill="#333" d="M63.5 67C77.031 67 87 56.007 87 42.476c0-5.894-2.032-16.75-5.5-20.976-3.468-4.227-10.363-3.5-18-3.5C49.969 18 33 25.5 37 40s12.969 27 26.5 27z" opacity=".2"/>
            <circle cx="60.5" cy="34.5" r="24.5" fill="#0186B8"/>
            <circle cx="60.5" cy="34.5" r="20.5" fill="#00506E" opacity=".5"/>
            <circle cx="34.5" cy="20.5" r="2.5" fill="#0186B8"/>
            <circle cx="26.5" cy="35.5" r="2.5" fill="#94E0FD"/>
            <path fill="#FFF" d="M51 43.5c-4-4.5-2.5-13.5 4.5-16 4 5 10 16 12.5 20C73.5 45 74.5 40 72.5 35c-7 2.5-17 7-21.5 8.5z" opacity=".4"/>
            <path fill="#94E0FD" d="M28.5 40H32v15c0 3-7 3.5-6.5 0s3-15 3-15z"/>
            <path fill="#0186B8" d="M4 12c0-2.5 1-4 4.5-4H24c3 0 4 1.75 4 4H4zM93 13c0-2.5.5-4 4-4h11c3 0 4 1.75 4 4H93z"/>
            <path fill="#333" d="M87 9l5 4v61h-2l-3-26z" opacity=".2"/>
        </g>
        <g transform="translate(749 18)">
            <path fill="#00ADEE" d="M16 .5S29.5 37 32 43s4 11 4.5 12.5 8 17 9 18.5 3.5 2 7 3 8 4 9 7.5 2 6 .5 9-6 7.5-12 6-7.5-3.5-8.5-8 2-12 1-15.5S35 61 34 61h-5.5L15 2l1-1.5zM45.5 82c-1.5 1.5-2 5.5-1.5 9s3.5 6 7 6.5 8.5-2.5 9-5-.5-5-1-7-4.026-5-7.026-5.5-4.974.5-6.474 2z"/>
            <path fill="#94E0FD" d="M45.5 3.5l2-1L35 59l-6 2c-1.5.5-5.5 8.5-7.5 12.5s1.5 12.5.5 17-4.5 9.5-11.5 9.5S-1 95 1 87.5s7.5-9 11-10 5.5-1.5 7-4.5 7.5-16 8.5-18.5 3.5-9 4.5-12 13.5-39 13.5-39zM12.5 80c-3.5 0-6.5 2-8 4.5s-2 5.5-1 8.5 4.615 5.5 8.058 5C15 97.5 18.5 95 19.5 92s0-7.5-1-9-2.5-3-6-3z"/>
            <circle cx="31.5" cy="55.5" r="1.5" fill="#00ADEE"/>
        </g>
        <path fill="#94E0FD" d="M232 46h4v63h-4z"/>
        <path fill="#0186B8" d="M204 109c4 0 16.6-2 30.236-2s27.743 2 30.264 2c5 0 6 9.5 1 11-2.548.765-16.93 1.944-31.264 2-14.333.056-27.54-1-30.236-1-5.5 0-5.903-12 0-12z"/>
        <path fill="#00ADEE" d="M233.5 42c-2.5 1.5-4.5 3-4.5 5s5.198 4 5.198 4S229 53 229 55s5.198 4 5.198 4S229 60.933 229 62.966C229 65 234.198 67 234.198 67S229 69 229 71s5.201 4 5.201 4S229 77 229 79s5.201 4 5.201 4 2.299 1 3.799 0-3.799-4-3.799-4 5.299-1.5 5.299-4-5.302-4-5.302-4 5.302-2.5 5.302-4-5.302-4.034-5.302-4.034S239.5 61 239.5 59s-5.302-4-5.302-4 5.302-1.5 5.302-4-5.25-4-5.25-4 3.75-1 3.75-3-2-3.5-4.5-2z"/>
        <path fill="#00506E" d="M262.5 41c1.5-2 21-15.5 26-17.5s25-7.5 28.5-8.5 76.5-7 77-6 1 7 0 7.5-22.5 4-29 4.5-18.5 3.5-23 3.5-21-1.5-29.5-1.5-16.5 3-20 6.5-15.5 13.5-20 16-11.5-2.5-10-4.5z"/>
        <path fill="#00506E" d="M397.37 37c-1.5-2-20.87-15-25.87-17S340 13 335 12s-68-3.5-68.5-2.5-1 9 0 9.5 22 1 28.5 1.5 19.5-1.5 24-1.5h26c8.5 0 18 4.5 21.5 8s16.37 12 20.87 14.5 11.5-2.5 10-4.5z"/>
        <path fill="#0186B8" d="M266.5 18.5c-.5-1-.5-4.5-.5-6.5s3-3.5 6.5-3.5 48.5 2.5 53 3 10.133 1.124 14.5.5c3.5-.5 12.4-1.778 20.5-2.5s20.044-1 22-1c3.5 0 8.5 0 10.5 1.5s1.5 7 1 8.5-3.5 4-3.5 5.5-3.5 17.5-7.5 21-11.5 7-22.5 6.5S343 46 340 41s-5-9-6.5-13-7-3-8 .5-5.5 14-11 18-12.5 6.5-19.5 6-16.5-2.5-19.5-7.5-5-19-6-22-2.5-3.5-3-4.5zm11.5-2c-2.5 2-3.5 3.5-4 7.5s.5 11 3 17 5.5 7 12.5 8 13.5.5 18-2 10.5-8.5 12-13.5 1.5-8 1-11.5-5-5.5-8-7-15-2-21-2-11 1.5-13.5 3.5zm63.5 3.5c-1.5 3-1.5 11 1 16s7 10 11 11.5 10.5 1.5 15.5 1 9.5-2 13-6.5 5-16 4.5-20-4-7-8-8-13-1.5-20-1-15.5 4-17 7z"/>
        <path fill="#FFF" d="M304.5 48c-4-9-9.5-35-9.5-35s14-1 20.5 3.5 5.5 14.5 3 19-6.5 10-14 12.5zM359 13c5 0 15 0 16 .5-2 4.5-3 30-2 34.5-2.5 1-14 1-17.5 0 .5-1.5 4.5-24 3.5-35z" opacity=".4"/>
        <g transform="translate(170 13)">
            <path fill="#00506E" d="M7 4.5V2c0-1 .5-2 2-2h4c1 0 2 1 2 2v2.5c0 .5-8 1-8 0z"/>
            <path fill="#00ADEE" d="M0 43V7c2-2 6.723-3.5 10.723-3.5C14.723 3.5 18.5 5 21 7v36c-3.5 2-18 0-21 0z"/>
            <ellipse cx="10.5" cy="43" fill="#00506E" rx="10.5" ry="3"/>
            <path fill="#00506E" d="M10 6c2-1 7.5-2 11-2s9.5 2.5 11 4v21c-2-1.5-6.5-3-11-3s-10.5 9.5-11 10.5V6zm2 1v2.5l1.5-.5V6.5L12 7zm9-1.5V8l2.5.5V6L21 5.5zM26 7v2l2 1V8l-2-1zM16 6v2.5l2-.5V5.5L16 6zm14 3v2.5l1.5.5v-2L30 9z"/>
        </g>
        <g transform="translate(427 8)">
            <rect width="51" height="101" fill="#0186B8" rx="7"/>
            <path fill="#FFF" d="M21.088 0h22.918A6.996 6.996 0 0 1 51 7v67.576L21.088 0z" opacity=".4"/>
            <circle cx="25.5" cy="4.5" r="1.5" fill="#00506E"/>
            <rect width="13" height="2" x="19" y="7" fill="#00506E" rx="1"/>
            <circle cx="25.5" cy="94.5" r="4.5" fill="#00506E"/>
        </g>
        <g transform="translate(294 85)">
            <path fill="#0186B8" d="M0 4c0-2 1-4 4-4h15v14c0 1.5-.5 4-3 4H0V4z"/>
            <path fill="#94E0FD" d="M6 2h3v10c0 1.763-3 1.5-3 0V2zM13 2h3v10c0 1.763-3 1.5-3 0V2z"/>
            <circle cx="9.5" cy="8.5" r="1.5" fill="#00506E"/>
            <circle cx="16.5" cy="8.5" r="1.5" fill="#00506E"/>
        </g>
        <g transform="translate(339 85)">
            <rect width="60" height="19" fill="#94E0FD" rx="3"/>
            <path fill="#00ADEE" d="M0 3c0-1.657 1.343-3 2.99-3H4s0 6 4.5 7.5C3 9.5 4 19 4 19H2.99A2.99 2.99 0 0 1 0 16V3zM54 1h2v3h-2V1zm0 4h2v3h-2V5zm0 4h2v3h-2V9zm0 4h2v3h-2v-3zM16 6h26V4l6 4-6 4v-2H16V6z"/>
            <path fill="#00506E" d="M0 16h60v1.5c0 .828-.674 1.5-1.498 1.5H1.498A1.495 1.495 0 0 1 0 17.5V16z" opacity=".5"/>
        </g>
        <path fill="#94E0FD" d="M665 42V23c0-1.5 1-3 3-3h76c1.5 0 3 1.5 3 3v19h-3v-3c0-4-7.5-13-15-13h-16s.5 72.5.5 77 4 7 6.5 8 6 1 6 1v3h-41v-3s3.5 0 6-1 7-3 7-8V26h-17c-6 0-13 8.5-13 13v3h-3z"/>
        <path fill="#0186B8" d="M641 47h5l-2 98-1.5 2-1.5-2z"/>
        <path fill="#94E0FD" d="M641 47l1-24h3l1 24z"/>
        <path fill="#00506E" d="M642 23s-2.25-3.5-1.5-6.5S644 11 644 9s4 2 4 6-3 8-3 8h-3z"/>
        <path fill="#94E0FD" d="M618 32s-.75-7-1-9l2-4h1l2 4c-.5 2-1 9-1 9h-3zm1.5-6.5c.552 0 1-.5 1-1s-.448-1-1-1-1 .5-1 1 .448 1 1 1z"/>
        <path fill="#00506E" d="M618 125s-2-88.5-2-90 1-4 3.5-4 3.5 2 3.5 4-3 90-3 90h-2z"/>
        <g transform="translate(575 45)">
            <rect width="14" height="39" fill="#94E0FD" rx="2"/>
            <path fill="#00ADEE" d="M0 20h14v17.003A2.001 2.001 0 0 1 11.994 39H2.006A2 2 0 0 1 0 37.003V20z"/>
        </g>
        <path fill="#0186B8" d="M532.753 70.967C518.723 70.235 508 57.217 508 43c0-14.636 11.364-26 26-26s27 11.364 27 26c0 13.923-11.19 26.695-24.879 27.906L537 92v23h-6V92l1.753-21.033zM534 66c12.979 0 24-10.021 24-23s-11.021-24-24-24-23 11.021-23 24 10.021 23 23 23z"/>
        <path fill="#FFF" d="M534 66c-12.979 0-23-10.021-23-23s10.021-24 23-24 24 11.021 24 24-11.021 23-24 23zm1.5-5c11.322 0 20.5-9.178 20.5-20.5S546.822 20 535.5 20 515 29.178 515 40.5 524.178 61 535.5 61z" opacity=".313"/>
        <path stroke="#94E0FD" stroke-linecap="round" stroke-linejoin="round" d="M583 106c-2 1-4.5 2.5-7 4s-.5 6 2.5 4.5 14-9 15.5-10 0-3.5-2-2.5-7.5 5-9 6-1 2.5.5 1.5 3-2 4-2.5"/>
        <path fill="#00506E" d="M846 35v-7h-4v-3l1-1h14l1 1v3h-4v7z"/>
        <path fill="#94E0FD" d="M845 34v1h-3c-2 0-3 1-3 3v19c0 6 4 7 4 10s-5 7.5-5 12.5 5 9 5 12.5-6 7-6 12v12h21v-12c0-4.5 5-6.5 5-12s-7-8.5-7-11.5 7-6.5 7-13.5-2-8-2-10V38c0-2-1-3-3-3h-3v-1h-10zM888 19l1.5-7h2l1.5 7z"/>
        <path fill="#00506E" d="M889 124l-1-105 3-2 2 2 1.5 105zM889.5 12l.5-3 .5-1 1 4z"/>
        <path fill="#94E0FD" d="M915 45l1.5-7h2l1.5 7z"/>
        <path fill="#00506E" d="M916 124l-1-79 3-2 2 2 1.5 79zM916.5 38l.5-3 .5-1 1 4z"/>
        <path fill="#94E0FD" d="M939 65l1.5-7h2l1.5 7z"/>
        <path fill="#00506E" d="M940 124l-1-59 3-2 2 2 1.5 59zM940.5 58l.5-3 .5-1 1 4z"/>
        <path fill="#94E0FD" d="M961 85l1.5-7h2l1.5 7z"/>
        <path fill="#00506E" d="M962 124l-1-39 3-2 2 2 1.5 39zM962.5 78l.5-3 .5-1 1 4z"/>
        <g>
            <path fill="#94E0FD" d="M992 9.999c0-1.104.892-1.999 2-1.999h374c1.105 0 2 .899 2 1.999v110.008a6 6 0 0 1-5.995 5.993h-366.01a5.996 5.996 0 0 1-5.995-5.993V9.999z"/>
            <g transform="translate(992 8)">
                <use fill="#94E0FD" xlink:href="#a"/>
                <path stroke="#00ADEE" d="M8.5 14.997c0-.274.225-.497.507-.497h11.986c.278 0 .507.227.507.497v6.006a.501.501 0 0 1-.507.497H9.007a.506.506 0 0 1-.507-.497v-6.006zm0 11.002c0-.275.226-.499.507-.499h11.986c.28 0 .507.224.507.499V37a.502.502 0 0 1-.507.499H9.007a.503.503 0 0 1-.507-.499V26zm0 16c0-.276.222-.499.493-.499h25.014c.271 0 .493.223.493.499V53a.497.497 0 0 1-.493.499H8.993a.496.496 0 0 1-.493-.499V42zm0 16c0-.276.222-.499.493-.499h25.014c.271 0 .493.223.493.499V69a.497.497 0 0 1-.493.499H8.993a.496.496 0 0 1-.493-.499V58zm0 16c0-.273.228-.499.5-.499h32a.5.5 0 0 1 .5.499V85a.504.504 0 0 1-.5.499H9a.5.5 0 0 1-.5-.499V74zm0 16.008a.5.5 0 0 1 .502-.507h19.996c.277 0 .502.225.502.507v12.986a.5.5 0 0 1-.502.507H9.002a.504.504 0 0 1-.502-.507V90.007zm24 0a.5.5 0 0 1 .493-.507h16.014a.5.5 0 0 1 .493.507v12.986a.5.5 0 0 1-.493.507H32.993a.5.5 0 0 1-.493-.507V90.007zm20 0c0-.285.22-.507.503-.507h20.994c.278 0 .503.225.503.507v12.986c0 .285-.22.507-.503.507H53.003a.504.504 0 0 1-.503-.507V90.007zm25 0c0-.282.223-.507.503-.507h92.994c.278 0 .503.225.503.507v12.986a.502.502 0 0 1-.503.507H78.003a.504.504 0 0 1-.503-.507V90.007zm97 0a.5.5 0 0 1 .502-.507h19.996c.277 0 .502.225.502.507v12.986a.5.5 0 0 1-.502.507h-19.996a.504.504 0 0 1-.502-.507V90.007zm24 0c0-.279.226-.507.495-.507h17.01a.5.5 0 0 1 .495.507v12.986c0 .279-.226.507-.495.507h-17.01a.5.5 0 0 1-.495-.507V90.007zm21 0c0-.28.225-.507.5-.507h22c.276 0 .5.225.5.507v12.986a.504.504 0 0 1-.5.507h-22a.503.503 0 0 1-.5-.507V90.007zM24.5 26c0-.275.226-.499.507-.499h11.986c.28 0 .507.224.507.499V37a.502.502 0 0 1-.507.499H25.007a.503.503 0 0 1-.507-.499V26zm16 0c0-.275.226-.499.507-.499h11.986c.28 0 .507.224.507.499V37a.502.502 0 0 1-.507.499H41.007a.503.503 0 0 1-.507-.499V26zm16 0c0-.275.226-.499.507-.499h11.986c.28 0 .507.224.507.499V37a.502.502 0 0 1-.507.499H57.007a.503.503 0 0 1-.507-.499V26zm16 0c0-.275.226-.499.507-.499h11.986c.28 0 .507.224.507.499V37a.502.502 0 0 1-.507.499H73.007a.503.503 0 0 1-.507-.499V26zm16 0c0-.275.226-.499.507-.499h11.986c.28 0 .507.224.507.499V37a.502.502 0 0 1-.507.499H89.007a.503.503 0 0 1-.507-.499V26zm16 0c0-.275.226-.499.507-.499h11.986c.28 0 .507.224.507.499V37a.502.502 0 0 1-.507.499h-11.986a.503.503 0 0 1-.507-.499V26zm16 0c0-.275.226-.499.507-.499h11.986c.28 0 .507.224.507.499V37a.502.502 0 0 1-.507.499h-11.986a.503.503 0 0 1-.507-.499V26zm16 0c0-.275.226-.499.507-.499h11.986c.28 0 .507.224.507.499V37a.502.502 0 0 1-.507.499h-11.986a.503.503 0 0 1-.507-.499V26zm-99 16c0-.275.226-.499.507-.499h11.986c.28 0 .507.224.507.499V53a.502.502 0 0 1-.507.499H38.007a.503.503 0 0 1-.507-.499V42zm16 0c0-.275.226-.499.507-.499h11.986c.28 0 .507.224.507.499V53a.502.502 0 0 1-.507.499H54.007a.503.503 0 0 1-.507-.499V42zm16 0c0-.275.226-.499.507-.499h11.986c.28 0 .507.224.507.499V53a.502.502 0 0 1-.507.499H70.007a.503.503 0 0 1-.507-.499V42zm-32 16c0-.275.226-.499.507-.499h11.986c.28 0 .507.224.507.499V69a.502.502 0 0 1-.507.499H38.007a.503.503 0 0 1-.507-.499V58zm16 0c0-.275.226-.499.507-.499h11.986c.28 0 .507.224.507.499V69a.502.502 0 0 1-.507.499H54.007a.503.503 0 0 1-.507-.499V58zm16 0c0-.275.226-.499.507-.499h11.986c.28 0 .507.224.507.499V69a.502.502 0 0 1-.507.499H70.007a.503.503 0 0 1-.507-.499V58zm16-16c0-.275.226-.499.507-.499h11.986c.28 0 .507.224.507.499V53a.502.502 0 0 1-.507.499H86.007a.503.503 0 0 1-.507-.499V42zm16 0c0-.275.226-.499.507-.499h11.986c.28 0 .507.224.507.499V53a.502.502 0 0 1-.507.499h-11.986a.503.503 0 0 1-.507-.499V42zm16 0c0-.275.226-.499.507-.499h11.986c.28 0 .507.224.507.499V53a.502.502 0 0 1-.507.499h-11.986a.503.503 0 0 1-.507-.499V42zm16 0c0-.275.226-.499.507-.499h11.986c.28 0 .507.224.507.499V53a.502.502 0 0 1-.507.499h-11.986a.503.503 0 0 1-.507-.499V42zm16 0c0-.275.226-.499.507-.499h11.986c.28 0 .507.224.507.499V53a.502.502 0 0 1-.507.499h-11.986a.503.503 0 0 1-.507-.499V42zm3-16c0-.275.226-.499.507-.499h11.986c.28 0 .507.224.507.499V37a.502.502 0 0 1-.507.499h-11.986a.503.503 0 0 1-.507-.499V26zm16 0c0-.275.226-.499.507-.499h11.986c.28 0 .507.224.507.499V37a.502.502 0 0 1-.507.499h-11.986a.503.503 0 0 1-.507-.499V26zm16 0c0-.275.226-.499.507-.499h11.986c.28 0 .507.224.507.499V37a.502.502 0 0 1-.507.499h-11.986a.503.503 0 0 1-.507-.499V26zm16 0c0-.275.226-.499.507-.499h11.986c.28 0 .507.224.507.499V37a.502.502 0 0 1-.507.499h-11.986a.503.503 0 0 1-.507-.499V26zm50 0c0-.275.226-.499.507-.499h11.986c.28 0 .507.224.507.499V37a.502.502 0 0 1-.507.499h-11.986a.503.503 0 0 1-.507-.499V26zm17 0c0-.275.226-.499.507-.499h11.986c.28 0 .507.224.507.499V37a.502.502 0 0 1-.507.499h-11.986a.503.503 0 0 1-.507-.499V26zm17 0c0-.275.226-.499.507-.499h11.986c.28 0 .507.224.507.499V37a.502.502 0 0 1-.507.499h-11.986a.503.503 0 0 1-.507-.499V26zm-34 16c0-.275.226-.499.507-.499h11.986c.28 0 .507.224.507.499V53a.502.502 0 0 1-.507.499h-11.986a.503.503 0 0 1-.507-.499V42zm17 0c0-.275.226-.499.507-.499h11.986c.28 0 .507.224.507.499V53a.502.502 0 0 1-.507.499h-11.986a.503.503 0 0 1-.507-.499V42zm17 0c0-.275.226-.499.507-.499h11.986c.28 0 .507.224.507.499V53a.502.502 0 0 1-.507.499h-11.986a.503.503 0 0 1-.507-.499V42zm-17 34c0-.275.226-.499.507-.499h11.986c.28 0 .507.224.507.499V87a.502.502 0 0 1-.507.499h-11.986a.503.503 0 0 1-.507-.499V76zm-17 16c0-.275.226-.499.507-.499h11.986c.28 0 .507.224.507.499V103a.502.502 0 0 1-.507.499h-11.986a.503.503 0 0 1-.507-.499V92zm17 0c0-.275.226-.499.507-.499h11.986c.28 0 .507.224.507.499V103a.502.502 0 0 1-.507.499h-11.986a.503.503 0 0 1-.507-.499V92zm17 0c0-.275.226-.499.507-.499h11.986c.28 0 .507.224.507.499V103a.502.502 0 0 1-.507.499h-11.986a.503.503 0 0 1-.507-.499V92zm-119-50c0-.275.226-.499.507-.499h11.986c.28 0 .507.224.507.499V53a.502.502 0 0 1-.507.499h-11.986a.503.503 0 0 1-.507-.499V42zm16 0c0-.275.226-.499.507-.499h11.986c.28 0 .507.224.507.499V53a.502.502 0 0 1-.507.499h-11.986a.503.503 0 0 1-.507-.499V42zm16 0c0-.275.226-.499.507-.499h11.986c.28 0 .507.224.507.499V53a.502.502 0 0 1-.507.499h-11.986a.503.503 0 0 1-.507-.499V42zm-112 16c0-.275.226-.499.507-.499h11.986c.28 0 .507.224.507.499V69a.502.502 0 0 1-.507.499H86.007a.503.503 0 0 1-.507-.499V58zm16 0c0-.275.226-.499.507-.499h11.986c.28 0 .507.224.507.499V69a.502.502 0 0 1-.507.499h-11.986a.503.503 0 0 1-.507-.499V58zm16 0c0-.275.226-.499.507-.499h11.986c.28 0 .507.224.507.499V69a.502.502 0 0 1-.507.499h-11.986a.503.503 0 0 1-.507-.499V58zm16 0c0-.275.226-.499.507-.499h11.986c.28 0 .507.224.507.499V69a.502.502 0 0 1-.507.499h-11.986a.503.503 0 0 1-.507-.499V58zm16 0c0-.275.226-.499.507-.499h11.986c.28 0 .507.224.507.499V69a.502.502 0 0 1-.507.499h-11.986a.503.503 0 0 1-.507-.499V58zm16 0c0-.275.226-.499.507-.499h11.986c.28 0 .507.224.507.499V69a.502.502 0 0 1-.507.499h-11.986a.503.503 0 0 1-.507-.499V58zm-121 16c0-.275.226-.499.507-.499h11.986c.28 0 .507.224.507.499V85a.502.502 0 0 1-.507.499H45.007a.503.503 0 0 1-.507-.499V74zm16 0c0-.275.226-.499.507-.499h11.986c.28 0 .507.224.507.499V85a.502.502 0 0 1-.507.499H61.007a.503.503 0 0 1-.507-.499V74zm16 0c0-.275.226-.499.507-.499h11.986c.28 0 .507.224.507.499V85a.502.502 0 0 1-.507.499H77.007a.503.503 0 0 1-.507-.499V74zm16 0c0-.275.226-.499.507-.499h11.986c.28 0 .507.224.507.499V85a.502.502 0 0 1-.507.499H93.007a.503.503 0 0 1-.507-.499V74zm16 0c0-.275.226-.499.507-.499h11.986c.28 0 .507.224.507.499V85a.502.502 0 0 1-.507.499h-11.986a.503.503 0 0 1-.507-.499V74zm16 0c0-.275.226-.499.507-.499h11.986c.28 0 .507.224.507.499V85a.502.502 0 0 1-.507.499h-11.986a.503.503 0 0 1-.507-.499V74zm16 0c0-.275.226-.499.507-.499h11.986c.28 0 .507.224.507.499V85a.502.502 0 0 1-.507.499h-11.986a.503.503 0 0 1-.507-.499V74zm16 0c0-.275.226-.499.507-.499h11.986c.28 0 .507.224.507.499V85a.502.502 0 0 1-.507.499h-11.986a.503.503 0 0 1-.507-.499V74zm16 0c0-.275.226-.499.507-.499h11.986c.28 0 .507.224.507.499V85a.502.502 0 0 1-.507.499h-11.986a.503.503 0 0 1-.507-.499V74zm9-16c0-.275.226-.499.507-.499h11.986c.28 0 .507.224.507.499V69a.502.502 0 0 1-.507.499h-11.986a.503.503 0 0 1-.507-.499V58zm16 0c0-.275.226-.499.507-.499h11.986c.28 0 .507.224.507.499V69a.502.502 0 0 1-.507.499h-11.986a.503.503 0 0 1-.507-.499V58zm-9 16c0-.275.226-.499.507-.499h11.986c.28 0 .507.224.507.499V85a.502.502 0 0 1-.507.499h-11.986a.503.503 0 0 1-.507-.499V74zm25-32c0-.275.226-.499.507-.499h11.986c.28 0 .507.224.507.499V53a.502.502 0 0 1-.507.499h-11.986a.503.503 0 0 1-.507-.499V42zm16 0c0-.275.226-.499.507-.499h11.986c.28 0 .507.224.507.499V53a.502.502 0 0 1-.507.499h-11.986a.503.503 0 0 1-.507-.499V42zm-16 16c0-.276.223-.499.498-.499h28.004c.275 0 .498.223.498.499V69a.499.499 0 0 1-.498.499h-28.004a.499.499 0 0 1-.498-.499V58zm-9 16c0-.28.218-.499.503-.499h36.994c.278 0 .503.224.503.499V85c0 .28-.218.499-.503.499h-36.994a.501.501 0 0 1-.503-.499V74zm12-48c0-.276.222-.499.493-.499h25.014c.271 0 .493.223.493.499V37a.497.497 0 0 1-.493.499h-25.014a.496.496 0 0 1-.493-.499V26zm-191-11.002c0-.274.225-.497.507-.497h11.986c.278 0 .507.227.507.497v6.006a.501.501 0 0 1-.507.497H26.007a.506.506 0 0 1-.507-.497v-6.006zm17 0c0-.274.225-.497.507-.497h11.986c.278 0 .507.227.507.497v6.006a.501.501 0 0 1-.507.497H43.007a.506.506 0 0 1-.507-.497v-6.006zm17 0c0-.274.225-.497.507-.497h11.986c.278 0 .507.227.507.497v6.006a.501.501 0 0 1-.507.497H60.007a.506.506 0 0 1-.507-.497v-6.006zm17 0c0-.274.225-.497.507-.497h11.986c.278 0 .507.227.507.497v6.006a.501.501 0 0 1-.507.497H77.007a.506.506 0 0 1-.507-.497v-6.006zm17 0c0-.274.225-.497.507-.497h11.986c.278 0 .507.227.507.497v6.006a.501.501 0 0 1-.507.497H94.007a.506.506 0 0 1-.507-.497v-6.006zm17 0c0-.274.225-.497.507-.497h11.986c.278 0 .507.227.507.497v6.006a.501.501 0 0 1-.507.497h-11.986a.506.506 0 0 1-.507-.497v-6.006zm17 0c0-.274.225-.497.507-.497h11.986c.278 0 .507.227.507.497v6.006a.501.501 0 0 1-.507.497h-11.986a.506.506 0 0 1-.507-.497v-6.006zm17 0c0-.274.225-.497.507-.497h11.986c.278 0 .507.227.507.497v6.006a.501.501 0 0 1-.507.497h-11.986a.506.506 0 0 1-.507-.497v-6.006zm17 0c0-.274.225-.497.507-.497h11.986c.278 0 .507.227.507.497v6.006a.501.501 0 0 1-.507.497h-11.986a.506.506 0 0 1-.507-.497v-6.006zm17 0c0-.274.225-.497.507-.497h11.986c.278 0 .507.227.507.497v6.006a.501.501 0 0 1-.507.497h-11.986a.506.506 0 0 1-.507-.497v-6.006zm17 0c0-.274.225-.497.507-.497h11.986c.278 0 .507.227.507.497v6.006a.501.501 0 0 1-.507.497h-11.986a.506.506 0 0 1-.507-.497v-6.006zm17 0c0-.274.225-.497.507-.497h11.986c.278 0 .507.227.507.497v6.006a.501.501 0 0 1-.507.497h-11.986a.506.506 0 0 1-.507-.497v-6.006zm17 0c0-.274.225-.497.507-.497h11.986c.278 0 .507.227.507.497v6.006a.501.501 0 0 1-.507.497h-11.986a.506.506 0 0 1-.507-.497v-6.006zm21 0c0-.274.225-.497.507-.497h11.986c.278 0 .507.227.507.497v6.006a.501.501 0 0 1-.507.497h-11.986a.506.506 0 0 1-.507-.497v-6.006zm17 0c0-.274.225-.497.507-.497h11.986c.278 0 .507.227.507.497v6.006a.501.501 0 0 1-.507.497h-11.986a.506.506 0 0 1-.507-.497v-6.006zm17 0c0-.274.225-.497.507-.497h11.986c.278 0 .507.227.507.497v6.006a.501.501 0 0 1-.507.497h-11.986a.506.506 0 0 1-.507-.497v-6.006zm21 11.002c0-.275.226-.499.507-.499h11.986c.28 0 .507.224.507.499V37a.502.502 0 0 1-.507.499h-11.986a.503.503 0 0 1-.507-.499V26zm17 0c0-.275.226-.499.507-.499h11.986c.28 0 .507.224.507.499V37a.502.502 0 0 1-.507.499h-11.986a.503.503 0 0 1-.507-.499V26zm17 0c0-.275.226-.499.507-.499h11.986c.28 0 .507.224.507.499V37a.502.502 0 0 1-.507.499h-11.986a.503.503 0 0 1-.507-.499V26zm-34 16c0-.275.226-.499.507-.499h11.986c.28 0 .507.224.507.499V53a.502.502 0 0 1-.507.499h-11.986a.503.503 0 0 1-.507-.499V42zm17 0c0-.275.226-.499.507-.499h11.986c.28 0 .507.224.507.499V53a.502.502 0 0 1-.507.499h-11.986a.503.503 0 0 1-.507-.499V42zm17 0c0-.275.226-.499.507-.499h11.986c.28 0 .507.224.507.499V53a.502.502 0 0 1-.507.499h-11.986a.503.503 0 0 1-.507-.499V42zm-34-27.002c0-.274.225-.497.507-.497h11.986c.278 0 .507.227.507.497v6.006a.501.501 0 0 1-.507.497h-11.986a.506.506 0 0 1-.507-.497v-6.006zm17 0c0-.274.225-.497.507-.497h11.986c.278 0 .507.227.507.497v6.006a.501.501 0 0 1-.507.497h-11.986a.506.506 0 0 1-.507-.497v-6.006zm17 0c0-.274.225-.497.507-.497h11.986c.278 0 .507.227.507.497v6.006a.501.501 0 0 1-.507.497h-11.986a.506.506 0 0 1-.507-.497v-6.006zm17 11.002c0-.275.226-.499.507-.499h11.986c.28 0 .507.224.507.499V37a.502.502 0 0 1-.507.499h-11.986a.503.503 0 0 1-.507-.499V26zm0 16c0-.275.226-.499.507-.499h11.986c.28 0 .507.224.507.499V53a.502.502 0 0 1-.507.499h-11.986a.503.503 0 0 1-.507-.499V42zm-51 16c0-.275.226-.499.507-.499h11.986c.28 0 .507.224.507.499V69a.502.502 0 0 1-.507.499h-11.986a.503.503 0 0 1-.507-.499V58zm17 0c0-.275.226-.499.507-.499h11.986c.28 0 .507.224.507.499V69a.502.502 0 0 1-.507.499h-11.986a.503.503 0 0 1-.507-.499V58zm17 0c0-.275.226-.499.507-.499h11.986c.28 0 .507.224.507.499V69a.502.502 0 0 1-.507.499h-11.986a.503.503 0 0 1-.507-.499V58zm-34 16c0-.275.226-.499.507-.499h11.986c.28 0 .507.224.507.499V85a.502.502 0 0 1-.507.499h-11.986a.503.503 0 0 1-.507-.499V74zm17 0c0-.275.226-.499.507-.499h11.986c.28 0 .507.224.507.499V85a.502.502 0 0 1-.507.499h-11.986a.503.503 0 0 1-.507-.499V74zm17 0c0-.275.226-.499.507-.499h11.986c.28 0 .507.224.507.499V85a.502.502 0 0 1-.507.499h-11.986a.503.503 0 0 1-.507-.499V74zm0 16.008c0-.28.227-.507.507-.507h11.986c.28 0 .507.226.507.507v12.986c0 .28-.227.507-.507.507h-11.986a.506.506 0 0 1-.507-.507V90.007zm-34 0c0-.284.219-.507.496-.507h29.008a.5.5 0 0 1 .496.507v12.986a.497.497 0 0 1-.496.507h-29.008a.5.5 0 0 1-.496-.507V90.007zM356.5 58c0-.275.226-.499.507-.499h11.986c.28 0 .507.224.507.499V69a.502.502 0 0 1-.507.499h-11.986a.503.503 0 0 1-.507-.499V58zm0 15.997c0-.273.225-.496.507-.496h11.986c.285 0 .507.219.507.496v29.008a.501.501 0 0 1-.507.496h-11.986a.497.497 0 0 1-.507-.496V73.996zm0-58.999c0-.274.225-.497.507-.497h11.986c.278 0 .507.227.507.497v6.006a.501.501 0 0 1-.507.497h-11.986a.506.506 0 0 1-.507-.497v-6.006z"/>
            </g>
        </g>
        <g transform="translate(1404 46)">
            <path fill="#94E0FD" d="M22 0h4v13h-4z"/>
            <path fill="#94E0FD" d="M23 12h2v3h-2zM24 31a8 8 0 1 1 0-16 8 8 0 0 1 0 16zm0-2a6 6 0 1 0 0-12 6 6 0 0 0 0 12z"/>
            <path fill="#00ADEE" d="M0 50h33v-2s2 1 2 3-2 3-2 3v-2H0v-2z"/>
            <path fill="#94E0FD" d="M23 31v3l.5 2-12 43-1.5-.5 10-44 .5-3.5H23zm1.5 0H27l.5 3.5 11.5 43v17l-3.5-14L24 36l.5-2v-3z"/>
            <circle cx="15" cy="62" r="3" fill="#00ADEE"/>
            <path fill="#0186B8" d="M10 77.5l2 1 .5 1.5L6 98l-1-.5L8.5 78z"/>
            <circle cx="23.5" cy="35.5" r="2.5" fill="#00ADEE"/>
            <path fill="#94E0FD" d="M21.5 30v-3l1-1H25l1 1v3z"/>
        </g>
        <g transform="rotate(-90 715 -677)">
            <path fill="#0186B8" d="M7 104.996c0-.55.445-.996 1-.996h14c.552 0 1 .442 1 .996v84.008c0 .55-.445.996-1 .996H8c-.552 0-1-.442-1-.996v-84.008zM14 162v3h2v-3h-2zm0-7v3h2v-3h-2zm0 14v3h2v-3h-2zm0 7v3h2v-3h-2z"/>
            <rect width="30" height="30" y="78" fill="#00ADEE" rx="1"/>
            <path fill="#94E0FD" d="M7 1c.005-.553.448-1 1-1h14a1 1 0 0 1 1 1h.007A1 1 0 0 1 24 2.007v11.986A1 1 0 0 1 23.007 15H6.993A1 1 0 0 1 6 13.993V2.007A1 1 0 0 1 6.993 1H7zm0 1.997V12.998C7 13.544 7.448 14 8 14h14a1 1 0 0 0 1-1.002V3.002v-.005A1.003 1.003 0 0 1 22 4H8a1 1 0 0 1-1-1.003z"/>
            <path fill="#0186B8" d="M7 9h7v2h2V9h7v69H7V9zm7-7h2v7h-2V2z"/>
            <path fill="#00506E" d="M7 27h16v2H7z" opacity=".5"/>
            <rect width="20" height="7" x="5" y="20" fill="#0186B8" rx="1"/>
            <path fill="#94E0FD" d="M3 81h24v24H3z"/>
            <path fill="#0186B8" d="M14 81h2v3h-2v-3zm0 21h2v3h-2v-3zm10-10h3v2h-3v-2zM3 92h3v2H3v-2z"/>
        </g>
        <g>
            <path fill="#94E0FD" d="M129 115l7 1.5v2l-7 1.5z"/>
            <path fill="#00506E" d="M24 116l105-1 2 3-2 2-105 1.5zM136 116.5l3 .5 1 .5-4 1z"/>
        </g>
        <g>
            <path fill="#94E0FD" d="M1474.5 85.5c2-1.493 4.5-2.5 6.5-2.5 0-1.25-1-1.5-2.5-3 2-1 5-1 6.5-.5-.5-1.5 0-1.5-1.5-3.5 2-.5 5.5-1.5 8-.5 0-1.5-.5-2.5-2-3.5 1.5-.5 4.5-1.5 7.5-1 0-1 0-2.5-2-3.5 3-1 7.5-.5 9 0 0-1.5-1.5-2.5-2.5-5 4-.5 9.5 0 11.5 2 0-2-1-3.5-2-5.5 4 0 8 1.5 10.5 3.5 0-2-1-3.5-1.5-5 5 1.5 11.5 7.647 13.5 11 2 3.353 4.5 7 4.5 14.5 0 .75 19 1.25 22 2s3.5 1.5 0 2c-6.469.924-22.135.012-22.165.422-.442 6.02-1.727 11.665-3.335 14.078-2 3-7.5 9-12 10.5v-4.5c-2 1.5-5.5 3.5-8.5 4 1.5-2.5 1-4 1-5-3 2-5 2.5-7.5 2.5.5-1.5.5-2.5 0-4-1.25 1-6.5.5-8.5.5 2-1 2.5-1.5 3.5-2.5-2.5 0-7.5 0-10-1 1.5-1 2.5-1.5 3.5-2.5-3.5 0-6.5-1-9.5-3 1.5-.5 2-2 2-3-3.5 0-6-1-8.5-2 2.5-.5 2.5-2 2.5-3.5-2.5 0-4.5-.493-8-2.5z"/>
            <path fill="#42C8F4" d="M1534.5 84.5c-1.5-1-5-1-8-1-1.5-4.5-4.5-11-8.5-14 2 4.5 5 11 5 14-3-.5-14-.5-15.5-.5-1-2-6.5-8-10-8.5 3.5 3 5 5.5 6 8.5-2.5.5-16.5 1.5-18.5 1.5s26 3.5 30 2.5c0 2-7 8.5-9.5 10 7-1.5 13.5-7.5 14.5-9 3.5 0 13 0 14.5-1s1.5-1.5 0-2.5z"/>
        </g>
        <g>
            <path fill="#00ADEE" d="M1605 95.5c0-1.5.5-5-1-6.5s-14-4-14-9 4.5-7.5 11-9.5 30.335-5.482 35-6c4.5-.5 6.5.5 6.5 3 0 4-2.5 4.5-8 5.5s-27.5 4.5-32 6 5 1 8 4.5 2.5 10 2.5 12h-8zM1592.5 73c-1-.5-2.5-2.5-2.5-5s3.5-5.25 8-7 36-6.5 39.5-6.5 4.5 1 4.5 3-1 4-4.5 4.5-32 5-35 6-9 2.5-10 5zm0-10c-1-.5-2.5-2.5-2.5-5s3.5-5.25 8-7 36-6.5 39.5-6.5 4.5 1 4.5 3-1 4-4.5 4.5-32 5-35 6-9 2.5-10 5zm0-10c-1-.473-2.5-2.365-2.5-4.73s3.5-4.966 8-6.621c4.5-1.656 21-3.649 24.5-4.149s5.5.608 5.5 2.5-1 4-3 4.33c-2 .33-19.5 2.994-22.5 3.94-3 .946-9 2.365-10 4.73zm27.5 42.5V87c0-3.5 13.5-10 15.5-11.5s5.5-1.5 6.5.5.5 4-2 5.5-11 6-11 8v6h-9z"/>
            <path fill="#94E0FD" d="M1627 123c2-.5 6.5-5 8-7V95.5c0-2.5-35-2.5-35 0V116c.5 2 6.5 6 8 7 .055 0 .11-.003.167-.008a.957.957 0 0 0-.167.508V139c0 2 3.5 4 5 5s7.5 1 9 0 5-3 5-5v-16z"/>
            <path fill="#0186B8" d="M1618 142c-2.87 0-6.5 1-5 2s7.5 1 9 0-1.13-2-4-2z"/>
        </g>
        <path fill="#94E0FD" d="M1673 39c0-3-8-5-8-10s3-21 10-21 10 16 10 21-8 7-8 10v39c0 4 2 14 2 17 0 2-1.504 2.996-4 3-2.496.004-4-1-4-3 0-3 2-13 2-17V39zM1685 123.5l-9-1 24-24.5-9.5 21.5 9.5 1.5-25 24.5z"/>
        <g>
            <path fill="#00ADEE" d="M1891.5 84c1 2.5 2 14 2 16s0 3.5-1 5-4 2-4.5 3.5.5 1.5 2 1.5 2.5 0 3.5-1.5 3.5-1.5 3.5-3.5v-5.5c0-2.25-.5-18-1.5-21.5s-1.5-5.5 2-5.5 16 2 18 .5 9.5-3 11 1.5 2.5 7 2.5 9.5-3 16-4 19-3.5 3-5.5 5.5 0 2.5 2.5 2.5 2 0 3-2 2-3 3-5.5 2.5-6.5 4-9 2.5-6.5 2-9.5-3-11-5-13.5-7.902-4-13-2.5-13.5 0-18 0-6.5-2-7 2.5-.5 10 .5 12.5z"/>
            <path fill="#94E0FD" d="M1854 50c-.778-.123-1.5-2-1-2.5s9.5-7.5 9.5-7.5-5.5-4.5-7.5-7 0-4.5 2-2 7 6.42 7.5 7c.5.58-2-5-2-7s2-5.5 3-6.5 2 4.537 3.5 8.5-1.5 3-1.5 5 6.5-2.5 6-5.5-2.5-3-2-6.5 5.5-10 6.5-11.5 4 0 3 1.5-8.5 11.5-5.5 10 6.5-5 8.5-6.5 1-6 1-9 3-3 3 0-1 7.5 1 7 4-.5 7-.5 4 3.5 0 3-6 .5-7.5 1-6 4.5-8.5 5.5 4 .5 7-.5 4 3 0 3.5-9.5.5-10.5 2 0 3.5-1 5-2.5 2.5-2.5 5 8.5 10.5 10.5 11 37.5-1 42.5 1.5 10.5 4 12 8 0 6-1.5 7.5-3 1-1.5 7 7 7 6 12-1.5 17-2 19-3.5 2.5-4.5 4.5-1.5 2-3.5 2-3.5-.5-1.5-3 6-2 6.5-5 .5-11 0-14.5-1.5-3.5-5.5-5.5-7-7-8.5-11 0-.5-6 .5-13.5.5-17 0-3-1.5-4 3-4.5 10-5 12.5-.5 5-.5 7-1 8-1.5 9-3 3-3 4-1 2-4 2-3-1-1-3 4.5-2.5 5-4.5.5-11 .5-14 1-6 1.5-8 1.5-10.5 0-11.5-7.5-3.5-11.5-7-8.5-9-10-11.5-1.5-4.5-3-4.5-7.722 1.123-8.5 1z"/>
        </g>
        <g transform="translate(1968 8)">
            <rect width="38" height="76" fill="#00ADEE" rx="1"/>
            <rect width="30" height="1" x="4" y="37" fill="#00506E" opacity=".4" rx=".5"/>
            <path fill="#94E0FD" d="M9 13a4 4 0 1 1 0-8 4 4 0 0 1 0 8zm20 0a4 4 0 1 1 0-8 4 4 0 0 1 0 8zM9 23a4 4 0 1 1 0-8 4 4 0 0 1 0 8zm20 0a4 4 0 1 1 0-8 4 4 0 0 1 0 8zM9 33a4 4 0 1 1 0-8 4 4 0 0 1 0 8zm20 0a4 4 0 1 1 0-8 4 4 0 0 1 0 8zM19 62a4 4 0 1 1 0-8 4 4 0 0 1 0 8z"/>
        </g>
    </g>
</svg>
